<svg xmlns="http://www.w3.org/2000/svg" width="69.994" height="41.994" viewBox="0 0 69.994 41.994">
  <defs>
    <style>
      .cls-1 {
        fill: #b2b2b2;
      }

      .cls-2 {
        fill: #7f7f7f;
      }

      .cls-3 {
        fill: #fff;
      }
    </style>
  </defs>
  <g id="mastercard_grey" transform="translate(-51.288 -123.167)">
    <path id="Path_806" data-name="Path 806" class="cls-1" d="M239.272,144.165a20.947,20.947,0,1,1-41.894.011v-.011a20.947,20.947,0,1,1,41.894-.011S239.272,144.161,239.272,144.165Z" transform="translate(-117.991)"/>
    <path id="Path_807" data-name="Path 807" class="cls-2" d="M72.1,123.193A20.993,20.993,0,1,0,86.33,159.708v0h0a20.753,20.753,0,0,0,2.127-2.248H84.169a20.151,20.151,0,0,1-1.562-2.161h7.4a21.169,21.169,0,0,0,1.221-2.248H81.386a20.606,20.606,0,0,1-.876-2.2H92.1a20.96,20.96,0,0,0,1.078-6.659,21.171,21.171,0,0,0-.482-4.5H79.895a21.377,21.377,0,0,1,.6-2.2h11.6a21.067,21.067,0,0,0-.9-2.249h-9.8a20.443,20.443,0,0,1,1.2-2.2h7.4a21.244,21.244,0,0,0-1.625-2.248H84.233a19.447,19.447,0,0,1,2.1-2.119,20.836,20.836,0,0,0-14.1-5.472Z" transform="translate(0 -0.021)"/>
    <g id="Group_2973" data-name="Group 2973" transform="translate(53.275 138.743)">
      <path id="Path_808" data-name="Path 808" class="cls-3" d="M184.876,218.81l.28-1.9c-.153,0-.377.065-.575.065-.776,0-.862-.413-.812-.719l.627-3.877h1.18l.285-2.1h-1.112l.227-1.306h-2.231c-.048.049-1.317,7.35-1.317,8.238A1.658,1.658,0,0,0,183.2,219.1,5.859,5.859,0,0,0,184.876,218.81Z" transform="translate(-158.384 -208.044)"/>
      <path id="Path_809" data-name="Path 809" class="cls-3" d="M203.035,219.633c0,3.159,2.079,3.91,3.852,3.91a5.643,5.643,0,0,0,2.356-.368l.394-2.156a6.9,6.9,0,0,1-2.368.553c-2.394,0-1.975-1.791-1.975-1.791h4.533a16.2,16.2,0,0,0,.291-2.04,3,3,0,0,0-3.18-3.267C204.694,214.476,203.035,216.9,203.035,219.633Zm3.912-3.157c1.258,0,1.026,1.418,1.026,1.532H205.5C205.5,217.862,205.73,216.476,206.947,216.476Z" transform="translate(-175.835 -212.489)"/>
      <path id="Path_810" data-name="Path 810" class="cls-3" d="M271.747,214.915l.4-2.439a5.339,5.339,0,0,1-1.845.553,2.212,2.212,0,0,1-2.216-2.512c0-2.64,1.361-4.092,2.877-4.092a3.963,3.963,0,0,1,2.048.64l.364-2.366a7.975,7.975,0,0,0-2.511-.55c-2.575,0-5.081,2.236-5.081,6.443,0,2.785,1.354,4.628,4.015,4.628A10.252,10.252,0,0,0,271.747,214.915Z" transform="translate(-226.513 -204.149)"/>
      <path id="Path_811" data-name="Path 811" class="cls-3" d="M118.182,214.654a7.7,7.7,0,0,0-2.7.492l-.323,1.926a7.051,7.051,0,0,1,2.43-.393c.831,0,1.437.093,1.437.77a1.438,1.438,0,0,1-.074.562s-.654-.055-.958-.055c-1.928,0-3.955.825-3.955,3.313a2.119,2.119,0,0,0,2.153,2.409,2.9,2.9,0,0,0,2.288-1.027l-.073.855h1.963l.877-6.157C121.245,214.738,118.971,214.654,118.182,214.654Zm.479,5.01c.043.376-.236,2.14-1.579,2.14a.815.815,0,0,1-.873-.845c0-.611.332-1.346,1.967-1.346A1.455,1.455,0,0,1,118.661,219.665Z" transform="translate(-103.956 -212.633)"/>
      <path id="Path_812" data-name="Path 812" class="cls-3" d="M151.854,223.691c.5,0,3.373.129,3.373-2.841,0-2.777-2.658-2.229-2.658-3.344,0-.553.433-.731,1.225-.731.314,0,1.524.1,1.524.1l.282-1.975a10.43,10.43,0,0,0-2.057-.174c-1.652,0-3.325.658-3.325,2.917,0,2.561,2.792,2.3,2.792,3.38,0,.72-.781.779-1.383.779a7.25,7.25,0,0,1-1.98-.341l-.3,1.952A6.97,6.97,0,0,0,151.854,223.691Z" transform="translate(-132.477 -212.693)"/>
      <path id="Path_813" data-name="Path 813" class="cls-3" d="M366.047,205.425l-.48,2.991a2.947,2.947,0,0,0-2.153-1.161c-2.045,0-3.747,2.469-3.747,5.306,0,1.832.907,3.624,2.766,3.624a2.782,2.782,0,0,0,2.076-.933l-.1.8h2.169l1.7-10.629Zm-1.035,5.835c0,1.18-.584,2.755-1.793,2.755-.8,0-1.178-.675-1.178-1.735,0-1.732.776-2.877,1.755-2.877C364.6,209.4,365.012,209.957,365.012,211.26Z" transform="translate(-302.339 -205.176)"/>
      <path id="Path_814" data-name="Path 814" class="cls-3" d="M63.768,216.049l1.359-8.025.2,8.025h1.537l2.866-8.025-1.27,8.025h2.283l1.76-10.641H68.97l-2.2,6.528-.114-6.528H63.4l-1.784,10.641Z" transform="translate(-61.619 -205.166)"/>
      <path id="Path_815" data-name="Path 815" class="cls-3" d="M241.837,223.958c.649-3.7.769-6.7,2.32-6.156a8.662,8.662,0,0,1,.828-2.591,2.319,2.319,0,0,0-.43-.029c-1,0-1.737,1.367-1.737,1.367l.2-1.255h-2.077l-1.39,8.664Z" transform="translate(-205.324 -213.06)"/>
      <path id="Path_816" data-name="Path 816" class="cls-3" d="M306.145,214.654a7.7,7.7,0,0,0-2.7.492l-.322,1.926a7.034,7.034,0,0,1,2.43-.393c.83,0,1.438.093,1.438.77a1.425,1.425,0,0,1-.075.562s-.654-.055-.96-.055c-1.929,0-3.953.825-3.953,3.313a2.119,2.119,0,0,0,2.153,2.409,2.891,2.891,0,0,0,2.287-1.027l-.073.855h1.965l.876-6.157C309.21,214.738,306.937,214.654,306.145,214.654Zm.479,5.01c.043.376-.235,2.14-1.58,2.14a.813.813,0,0,1-.871-.845c0-.611.332-1.346,1.964-1.346A1.459,1.459,0,0,1,306.624,219.665Z" transform="translate(-255.765 -212.633)"/>
      <path id="Path_817" data-name="Path 817" class="cls-3" d="M339.184,223.958c.65-3.7.77-6.7,2.32-6.156a8.607,8.607,0,0,1,.829-2.591,2.353,2.353,0,0,0-.431-.029c-1,0-1.738,1.367-1.738,1.367l.2-1.255h-2.078l-1.39,8.663h2.29Z" transform="translate(-283.947 -213.06)"/>
    </g>
  </g>
</svg>
