<svg xmlns="http://www.w3.org/2000/svg" width="94.325" height="24.105" viewBox="0 0 94.325 24.105">
  <defs>
    <style>
      .cls-1 {
        fill: #b2b2b2;
      }

      .cls-2 {
        fill: #7f7f7f;
      }
    </style>
  </defs>
  <g id="paypal_grey" transform="translate(0 -187.6)">
    <path id="Path_823" data-name="Path 823" class="cls-1" d="M355.135,221.2h-5.091a1,1,0,0,0-.749.6l-2.1,13.176a.4.4,0,0,0,.449.449h2.7a.4.4,0,0,0,.449-.449l.6-3.743a.685.685,0,0,1,.749-.6h1.647q5.165,0,5.839-4.941a3.924,3.924,0,0,0-.6-3.294,6.039,6.039,0,0,0-3.893-1.2m.6,4.941c-.3,1.8-1.647,1.8-2.994,1.8h-.9l.6-3.444c0-.15.15-.3.449-.3h.3c.9,0,1.8,0,2.246.6.3.15.3.6.3,1.348" transform="translate(-282.22 -27.312)"/>
    <g id="Group_2978" data-name="Group 2978" transform="translate(28.298 193.888)">
      <path id="Path_824" data-name="Path 824" class="cls-2" d="M159.135,221.2h-5.091a1,1,0,0,0-.749.6l-2.1,13.176a.4.4,0,0,0,.449.449h2.4a1,1,0,0,0,.749-.6l.6-3.593a.685.685,0,0,1,.749-.6h1.647q5.165,0,5.839-4.941a3.924,3.924,0,0,0-.6-3.294,5.755,5.755,0,0,0-3.893-1.2m.6,4.941c-.3,1.8-1.647,1.8-2.994,1.8h-.749l.6-3.444c0-.15.15-.3.449-.3h.3c.9,0,1.8,0,2.246.6a1.6,1.6,0,0,1,.15,1.348" transform="translate(-151.2 -221.2)"/>
      <path id="Path_825" data-name="Path 825" class="cls-2" d="M225.521,245.5h-2.4c-.15,0-.449.15-.449.3l-.15.749-.15-.3a3.522,3.522,0,0,0-2.845-1.048,5.753,5.753,0,0,0-5.54,4.941,4.463,4.463,0,0,0,.9,3.743,3.773,3.773,0,0,0,3.144,1.2,4.786,4.786,0,0,0,3.444-1.348l-.15.749a.4.4,0,0,0,.449.449h2.246a1,1,0,0,0,.749-.6l1.348-8.384c-.15-.15-.449-.449-.6-.449m-3.444,4.791a2.9,2.9,0,0,1-2.845,2.4,2.394,2.394,0,0,1-1.647-.6,3.193,3.193,0,0,1-.449-1.8,2.671,2.671,0,0,1,4.342-1.8,2.614,2.614,0,0,1,.6,1.8" transform="translate(-202.165 -240.708)"/>
    </g>
    <path id="Path_826" data-name="Path 826" class="cls-1" d="M420.721,245.5h-2.4c-.15,0-.449.15-.449.3l-.15.749-.15-.3a3.522,3.522,0,0,0-2.845-1.048,5.753,5.753,0,0,0-5.54,4.941,4.462,4.462,0,0,0,.9,3.743,3.773,3.773,0,0,0,3.144,1.2,4.786,4.786,0,0,0,3.444-1.348l-.15.749a.4.4,0,0,0,.449.449h2.246a1,1,0,0,0,.749-.6l1.348-8.384c-.15-.15-.3-.449-.6-.449m-3.444,4.791a2.9,2.9,0,0,1-2.845,2.4,2.394,2.394,0,0,1-1.647-.6,3.193,3.193,0,0,1-.449-1.8,2.671,2.671,0,0,1,4.342-1.8,1.718,1.718,0,0,1,.6,1.8" transform="translate(-332.535 -46.82)"/>
    <path id="Path_827" data-name="Path 827" class="cls-2" d="M295.529,246.8h-2.545a.778.778,0,0,0-.6.3l-3.294,5.091-1.5-4.791a.692.692,0,0,0-.749-.449h-2.4c-.3,0-.449.3-.449.6l2.7,7.935-2.545,3.593c-.15.3,0,.749.3.749h2.4a.778.778,0,0,0,.6-.3l8.235-11.828c.449-.449.15-.9-.15-.9" transform="translate(-230.849 -48.121)"/>
    <path id="Path_828" data-name="Path 828" class="cls-1" d="M477.3,222.044l-2.1,13.475a.4.4,0,0,0,.449.449h2.1a1,1,0,0,0,.749-.6l2.1-13.176a.4.4,0,0,0-.449-.449h-2.4a.491.491,0,0,0-.449.3" transform="translate(-386.265 -27.707)"/>
    <path id="Path_829" data-name="Path 829" class="cls-2" d="M17.218,189.4c-1.048-1.2-2.994-1.8-5.689-1.8H4.043a1.284,1.284,0,0,0-1.048.9L0,208.112a.685.685,0,0,0,.6.749H5.24l1.2-7.336v.3a1.284,1.284,0,0,1,1.048-.9H9.732c4.342,0,7.636-1.8,8.684-6.738v-.449h0a5.229,5.229,0,0,0-1.2-4.342"/>
    <path id="Path_830" data-name="Path 830" class="cls-1" d="M39.075,220.4h0v.449c-1.048,5.091-4.342,6.738-8.684,6.738H28.145a1.284,1.284,0,0,0-1.048.9l-1.5,9.133a.548.548,0,0,0,.6.6h3.893a.838.838,0,0,0,.9-.749v-.15l.749-4.641v-.3a.838.838,0,0,1,.9-.749h.6c3.743,0,6.738-1.5,7.486-5.989.3-1.8.15-3.444-.749-4.492a1.533,1.533,0,0,0-.9-.749" transform="translate(-20.809 -26.661)"/>
  </g>
</svg>
