<svg xmlns="http://www.w3.org/2000/svg" width="170" height="46.693" viewBox="0 0 170 46.693">
  <g id="Logo" transform="translate(-375 -41)">
    <path id="Path_715" data-name="Path 715" d="M32.6-15.848H29.941a6.3,6.3,0,0,0-1.5-5.144,6.9,6.9,0,0,0-5.1-2.019,10.106,10.106,0,0,0-5.854,1.572,5.973,5.973,0,0,0-2.781,4.412,4.326,4.326,0,0,0,1.309,3.8,13.416,13.416,0,0,0,5.529,2.741q5.021,1.6,6.979,3.83a6.929,6.929,0,0,1,1.7,5.367A8.077,8.077,0,0,1,28.4,3.228a9.99,9.99,0,0,1-4.22,2.932,14.739,14.739,0,0,1-5.67.952,12.108,12.108,0,0,1-5.421-1.233A8.311,8.311,0,0,1,9.481,2.557a8.216,8.216,0,0,1-.963-4.88h2.64a5.953,5.953,0,0,0,1.764,5.242,8.226,8.226,0,0,0,5.724,1.986,10.366,10.366,0,0,0,6.113-1.647,6.087,6.087,0,0,0,2.8-4.465q.5-4.074-4.35-5.982l-4.133-1.5-1.342-.542q-6.146-2.618-5.691-7.726a7.679,7.679,0,0,1,1.774-4.415A10.166,10.166,0,0,1,17.985-24.3a13.859,13.859,0,0,1,5.486-.963,10.6,10.6,0,0,1,4.988,1.288,7.941,7.941,0,0,1,3.289,3.343A8.567,8.567,0,0,1,32.6-15.848Zm10.66,22.96a9.051,9.051,0,0,1-7-3.062A12.572,12.572,0,0,1,33.46-3.9a18.275,18.275,0,0,1,.152-3.441l.433-2.986a19.94,19.94,0,0,1,4.761-10.777,12.078,12.078,0,0,1,9.565-4.155,9.84,9.84,0,0,1,5.075,1.417,8.976,8.976,0,0,1,3.387,3.938,14.43,14.43,0,0,1,1.32,5.681,20.2,20.2,0,0,1-.195,3.635l-.5,3.333a21.688,21.688,0,0,1-2.8,7.79A13.93,13.93,0,0,1,49.69,5.522,12.331,12.331,0,0,1,43.263,7.112ZM2.64,6.68H0L5.475-24.828h2.64ZM55.36-10.827a25.023,25.023,0,0,0,.195-2.77,13.433,13.433,0,0,0-.822-4.8,6.915,6.915,0,0,0-2.478-3.322,7.186,7.186,0,0,0-4.014-1.223,9.455,9.455,0,0,0-7.379,3.105,16.465,16.465,0,0,0-4.025,8.689,39.841,39.841,0,0,0-.757,6.557,10.9,10.9,0,0,0,1.915,6.838,6.665,6.665,0,0,0,5.4,2.554,9.4,9.4,0,0,0,7.628-3.332,17.322,17.322,0,0,0,3.863-9.089Z" transform="translate(375 66.305)" fill="#fff" opacity="0.9"/>
    <path id="Path_716" data-name="Path 716" d="M110.7,7.131a9.386,9.386,0,0,1-4.685-1.266,7.834,7.834,0,0,1-3.084-3.527,13.352,13.352,0,0,1-1.169-5.291,20.178,20.178,0,0,1,.13-3.224l.822-5.5q1-6.644,4.263-10.16a10.543,10.543,0,0,1,8.331-3.408,8.318,8.318,0,0,1,6.438,2.77,11.476,11.476,0,0,1,2.5,7.314,22.041,22.041,0,0,1-.151,3.224l-.866,5.6Q122.189.4,118.932,3.82A10.547,10.547,0,0,1,110.7,7.131Zm-22.887,0a9.385,9.385,0,0,1-4.685-1.266,7.832,7.832,0,0,1-3.084-3.527,13.345,13.345,0,0,1-1.169-5.291A20.157,20.157,0,0,1,79-6.178l.822-5.5q1-6.644,4.263-10.16a10.543,10.543,0,0,1,8.331-3.408,8.317,8.317,0,0,1,6.438,2.77,11.475,11.475,0,0,1,2.5,7.314,22.011,22.011,0,0,1-.151,3.224l-.865,5.6Q99.3.4,96.046,3.82A10.547,10.547,0,0,1,87.812,7.131ZM52.6,6.7H31.24l.779-5.021L43.229-8.732l1.537-1.536q3.614-3.636,3.311-6.86a2.473,2.473,0,0,0-2.6-2.575,3.418,3.418,0,0,0-2.824,1.352A6.921,6.921,0,0,0,41.216-14.7l-7.076.043a10.807,10.807,0,0,1,1.8-5.421,11.19,11.19,0,0,1,4.339-3.841,12.367,12.367,0,0,1,5.789-1.363,10.234,10.234,0,0,1,7.141,2.5,7.688,7.688,0,0,1,2.207,6.524,10.647,10.647,0,0,1-1.591,4.718,24.316,24.316,0,0,1-4.058,4.826l-3.289,3.03L41.584,1.028l11.9.043Zm85.682,0H131.14l4.025-23.155-7.336,2.077,1-5.778L142.76-24.81l.8-.022Zm-74.157,0H56.334L71.807-19.184H57.373l.909-5.626H80.333l-.671,4.22Zm53-19.606a24.877,24.877,0,0,0,.216-2.662q0-3.96-2.51-4.09-3.852-.195-4.782,6.6L108.9-5.269a24.654,24.654,0,0,0-.216,2.662q-.108,4,2.489,4.155,3.917.195,4.826-6.773Zm-22.887,0a24.927,24.927,0,0,0,.216-2.662q0-3.96-2.51-4.09-3.852-.195-4.783,6.6l-1.147,7.79A24.642,24.642,0,0,0,85.8-2.607q-.108,4,2.489,4.155,3.917.195,4.826-6.773Z" transform="translate(401.439 66.287)" fill="#fff" opacity="0.9"/>
    <path id="Path_717" data-name="Path 717" d="M136.895,5.017H30.079L31.812-5.926H138.628Zm-9.312-8.1.232-1.315h-6.232l-.232,1.315h2.31l-1.136,6.562h1.585l1.136-6.562Zm-80.431,0,.233-1.315H42.261L40.892,3.484h5.134l.227-1.3H42.7L43.072.07h3.019L46.318-1.2h-3.03l.33-1.877Zm48.216,0L95.6-4.393H90.477L89.108,3.484h5.134l.227-1.3H90.921L91.289.07h3.019L94.535-1.2h-3.03l.33-1.877Zm15.25,6.562V3.4L109.509.2a2.475,2.475,0,0,0,1.731-2.256,1.951,1.951,0,0,0-.625-1.715,2.971,2.971,0,0,0-2.015-.617l-2.608-.006-1.369,7.877h1.585l.5-2.884H108l.931,2.884Zm-36.326,0L74.778.709l1.493.005A3.514,3.514,0,0,0,78.514.022a2.486,2.486,0,0,0,.966-1.85,2.2,2.2,0,0,0-.638-1.85,2.76,2.76,0,0,0-2.007-.709l-2.759-.006L72.706,3.484Zm-11.825,0-1.634-3.9,2.894-3.982h-1.9L59.967-1.688,58.96-4.393H57.229l1.585,3.83L55.855,3.484h1.926L59.68.736l1.033,2.748ZM75-.606,76.32-.6a1.669,1.669,0,0,0,1.06-.33,1.328,1.328,0,0,0,.5-.893,1.14,1.14,0,0,0-.181-.9.981.981,0,0,0-.776-.357l-1.493-.006Zm31.939-.108,1.179.011a1.653,1.653,0,0,0,1.036-.338,1.339,1.339,0,0,0,.49-.89,1.02,1.02,0,0,0-.168-.822,1,1,0,0,0-.774-.319l-1.352-.006Z" transform="translate(400.456 82.676)" fill="#fff" fill-rule="evenodd" opacity="0.9"/>
  </g>
</svg>
