<svg xmlns="http://www.w3.org/2000/svg" width="95.866" height="100" viewBox="0 0 95.866 100"><g transform="translate(-1148 -297)"><path d="M2282.425,3565.937a2.069,2.069,0,0,0-.646-1.5l-19.568-18.964a2.1,2.1,0,0,0-2.958.042,2.056,2.056,0,0,0,.02,2.938l15.88,15.4h-35.2a2.084,2.084,0,0,0,0,4.168h35.2l-15.88,15.379a2.055,2.055,0,0,0-.021,2.938,2,2,0,0,0,1.5.627,2.067,2.067,0,0,0,1.458-.585l19.569-18.964A2.024,2.024,0,0,0,2282.425,3565.937Zm51.14-48.161a3.25,3.25,0,0,0-.125-.521,2.477,2.477,0,0,0-.375-.542.491.491,0,0,0-.1-.1,2.155,2.155,0,0,0-.291-.313,1.983,1.983,0,0,0-1.375-.25H2268.4a2.085,2.085,0,0,0-2.105,2.063v20.652a2.1,2.1,0,1,0,4.209,0v-18.568h51.162l-24.674,11.107a2.1,2.1,0,0,0-1.23,1.9v65.457a2.085,2.085,0,0,0,1.23,1.9l25.112,11.3h-51.6v-18.464a2.1,2.1,0,1,0-4.209,0v20.549a2.109,2.109,0,0,0,2.1,2.084h63.123a2.084,2.084,0,0,0,2.1-2.084v-95.883a1.058,1.058,0,0,0-.063-.271Zm-33.593,16.776,29.446-13.275v89.3l-29.446-13.275v-62.748Zm14.775,27.175h-8.336a2.084,2.084,0,1,0,0,4.147h8.336a2.084,2.084,0,1,0,0-4.147Z" transform="translate(-1089.87 -3219.015)" fill="#081018" fill-rule="evenodd" opacity="0.3"/><path d="M2333.565,3517.776a3.25,3.25,0,0,0-.125-.521,2.477,2.477,0,0,0-.375-.542.491.491,0,0,0-.1-.1,2.155,2.155,0,0,0-.291-.313,1.983,1.983,0,0,0-1.375-.25c-.033,0-9.683,4.138-9.627,4.147l-24.674,11.107a2.1,2.1,0,0,0-1.23,1.9v65.457a2.085,2.085,0,0,0,1.23,1.9l25.112,11.3c.016.013,9.423,4.154,9.419,4.169a2.084,2.084,0,0,0,2.1-2.084v-95.883a1.058,1.058,0,0,0-.063-.271Zm-33.593,16.776,29.446-13.275v89.3l-29.446-13.275v-62.748Zm14.775,27.175h-8.336a2.084,2.084,0,1,0,0,4.147h8.336a2.084,2.084,0,1,0,0-4.147Z" transform="translate(-1089.762 -3219.015)" fill="#0848c8" fill-rule="evenodd"/></g></svg>