<svg xmlns="http://www.w3.org/2000/svg" width="96.049" height="19.775" viewBox="0 0 96.049 19.775">
  <defs>
    <style>
      .cls-1, .cls-2 {
        fill-rule: evenodd;
      }

      .cls-2 {
        fill: #2a7ab7;
      }
    </style>
  </defs>
  <g id="mobilPay" transform="translate(0.006 0.005)">
    <path id="mobil" class="cls-1" d="M214.9,534.145V544.71h3.439v-6.176a2.952,2.952,0,0,1,.1-.837,1.1,1.1,0,0,1,.305-.52,1.314,1.314,0,0,1,.52-.271,2.746,2.746,0,0,1,.747-.091,1.92,1.92,0,0,1,.724.113.614.614,0,0,1,.362.362,3.861,3.861,0,0,1,.113.532,4.594,4.594,0,0,1,.045.667v6.222H224.7v-6.176a2.545,2.545,0,0,1,.091-.7,1.524,1.524,0,0,1,.271-.543,1.028,1.028,0,0,1,.486-.362,2.126,2.126,0,0,1,.735-.113,1.931,1.931,0,0,1,.826.147.714.714,0,0,1,.4.441,3.946,3.946,0,0,1,.136.645,5.771,5.771,0,0,1,.045.735v5.927h3.439V537.7a5.349,5.349,0,0,0-.215-1.606,2.826,2.826,0,0,0-.622-1.109,2.4,2.4,0,0,0-1.086-.667,5.435,5.435,0,0,0-1.629-.215,4.538,4.538,0,0,0-1.029.113,5.1,5.1,0,0,0-.939.317,1.71,1.71,0,0,0-.724.6,2.326,2.326,0,0,0-.362.962l-.158.045a2.409,2.409,0,0,0-.271-1.131,1.282,1.282,0,0,0-.7-.588,6.11,6.11,0,0,0-.984-.238,7.176,7.176,0,0,0-1.1-.079h-.271a4.4,4.4,0,0,0-.837.124,4.318,4.318,0,0,0-.792.283,1.882,1.882,0,0,0-.633.452,2.256,2.256,0,0,0-.43.679h-.09v-1.493Zm17.8,4.728v1.2a8.046,8.046,0,0,0,.339,2.568,2.444,2.444,0,0,0,1.041,1.391,5.161,5.161,0,0,0,1.731.6,13.816,13.816,0,0,0,2.455.192,9.471,9.471,0,0,0,2.873-.351,2.193,2.193,0,0,0,1.4-1.075,7.047,7.047,0,0,0,.52-1.844,16.755,16.755,0,0,0,.181-2.636,8.352,8.352,0,0,0-.339-2.613,2.488,2.488,0,0,0-1.018-1.414,5.734,5.734,0,0,0-1.731-.588,13.329,13.329,0,0,0-2.5-.2,9.721,9.721,0,0,0-2.376.249,3.488,3.488,0,0,0-1.516.747,2.978,2.978,0,0,0-.8,1.448,8.938,8.938,0,0,0-.26,2.33Zm3.461.543v-.272a7.087,7.087,0,0,1,.068-1.041,3.562,3.562,0,0,1,.2-.792.946.946,0,0,1,.532-.486,2.639,2.639,0,0,1,1.029-.17,2.858,2.858,0,0,1,.962.136,1.012,1.012,0,0,1,.532.385,1.912,1.912,0,0,1,.238.656,5.041,5.041,0,0,1,.079.95v.747a.375.375,0,0,1-.011.09.362.362,0,0,0-.011.091v.566a5.722,5.722,0,0,1-.1.882,1.625,1.625,0,0,1-.26.634.917.917,0,0,1-.52.4,3.276,3.276,0,0,1-1.9-.034,1,1,0,0,1-.543-.475,2.549,2.549,0,0,1-.226-.747,6.447,6.447,0,0,1-.068-1v-.52h0Zm8.393,5.294H248l-.136-1.81.136.045a3.07,3.07,0,0,0,.475.973,1.838,1.838,0,0,0,.679.566,3.255,3.255,0,0,0,.871.26,6.725,6.725,0,0,0,1.075.079,6.044,6.044,0,0,0,2.319-.362,1.91,1.91,0,0,0,1.12-1.109,10.54,10.54,0,0,0,.4-1.674,15.04,15.04,0,0,0,.17-2.036v-.7a.179.179,0,0,1,.011-.057.19.19,0,0,0,.011-.057v-.5a6.815,6.815,0,0,0-.238-1.9,3.288,3.288,0,0,0-.69-1.312,2.819,2.819,0,0,0-1.256-.769,6.271,6.271,0,0,0-1.889-.249,5.314,5.314,0,0,0-.939.079,2.653,2.653,0,0,0-.781.26,1.863,1.863,0,0,0-.645.475,3.7,3.7,0,0,0-.509.747H248V529.62h-3.439v15.09h0Zm3.461-5.407v-.294a5.32,5.32,0,0,1,.124-1.278,1.1,1.1,0,0,1,.351-.645,1.621,1.621,0,0,1,.622-.26,4.372,4.372,0,0,1,.894-.079,1.933,1.933,0,0,1,.95.2.888.888,0,0,1,.452.588,6.073,6.073,0,0,1,.17.848,7.242,7.242,0,0,1,.057.916v.928a3.881,3.881,0,0,1-.091.882,1.75,1.75,0,0,1-.271.633.957.957,0,0,1-.532.373,2.918,2.918,0,0,1-.916.124,2.714,2.714,0,0,1-1.018-.158.816.816,0,0,1-.5-.475,3.159,3.159,0,0,1-.2-.713,5.165,5.165,0,0,1-.068-.871v-.339c-.015,0-.023,0-.023-.011V539.3Zm12.013-5.158H256.6V544.71h3.439V534.145Zm0-4.525H256.6V532.2h3.439V529.62Zm5.384,0h-3.439v15.09h3.439V529.62Z" transform="translate(-214.906 -529.625)"/>
    <path id="Pay" class="cls-2" d="M722.556,544.71h4.05v-3.869l2.421.045h1.527a.692.692,0,0,0,.17-.023h.294a10.549,10.549,0,0,0,1.108-.147,8.731,8.731,0,0,0,1.041-.26,2.584,2.584,0,0,0,.9-.532,3.107,3.107,0,0,0,.656-.871,3.8,3.8,0,0,0,.26-.6,5.791,5.791,0,0,0,.17-.622,6.17,6.17,0,0,0,.1-.633q.034-.316.057-.656V536.4a.7.7,0,0,1,.023-.17v-.973a9.19,9.19,0,0,0-.441-3.133,2.748,2.748,0,0,0-1.323-1.618,8.6,8.6,0,0,0-2.161-.622,21.571,21.571,0,0,0-2.952-.26h-5.9v15.09h0Zm4.05-7.353v-4.412l2.579.045a3.836,3.836,0,0,1,1.143.136.88.88,0,0,1,.554.407,2.689,2.689,0,0,1,.215.724,6.43,6.43,0,0,1,.079,1.086v.226a3.748,3.748,0,0,1-.1.961.923.923,0,0,1-.283.509,1.449,1.449,0,0,1-.611.238,5.593,5.593,0,0,1-1.041.079Zm13.506-.068v.045a2.058,2.058,0,0,1,.113-.6.605.605,0,0,1,.249-.328,1.236,1.236,0,0,1,.453-.158,3.908,3.908,0,0,1,.633-.045,2.631,2.631,0,0,1,.679.079,1.157,1.157,0,0,1,.452.215.814.814,0,0,1,.271.4,1.91,1.91,0,0,1,.091.622v1.923l-.136.045a1.838,1.838,0,0,0-.407-.6,1.349,1.349,0,0,0-.566-.328,3.229,3.229,0,0,0-.656-.158q-.339-.045-.679-.068h-.385a7.421,7.421,0,0,0-1.663.17,4.159,4.159,0,0,0-1.278.509,2.054,2.054,0,0,0-.814,1.018,4.742,4.742,0,0,0-.272,1.742,3.8,3.8,0,0,0,.249,1.459,2.058,2.058,0,0,0,.747.939,3.473,3.473,0,0,0,1.142.5,6.04,6.04,0,0,0,1.437.158h.249a.425.425,0,0,1,.136-.023h.271a.677.677,0,0,0,.158-.023.843.843,0,0,0,.136-.011.8.8,0,0,1,.136-.011,3.349,3.349,0,0,0,.735-.124,3.967,3.967,0,0,0,.667-.26,1.573,1.573,0,0,0,.52-.475,1.75,1.75,0,0,0,.271-.747h.136l-.136,1.561h3.439v-6.787a5.077,5.077,0,0,0-.385-2.149,2.082,2.082,0,0,0-1.131-1.109,9.081,9.081,0,0,0-1.674-.419,14.088,14.088,0,0,0-3.812-.034,8.386,8.386,0,0,0-1.5.339,1.712,1.712,0,0,0-1.018.916,4.153,4.153,0,0,0-.339,1.821h3.484Zm-.452,4.163v.045a1.445,1.445,0,0,1,.1-.588.589.589,0,0,1,.328-.317,2.436,2.436,0,0,1,.5-.136,3.6,3.6,0,0,1,.588-.045h.543a.2.2,0,0,0,.091.023h.09q.136.023.26.034a.861.861,0,0,1,.238.057.923.923,0,0,1,.226.079,1.365,1.365,0,0,1,.2.124.921.921,0,0,1,.113.136.588.588,0,0,1,.068.136q.022.091.034.17a1.241,1.241,0,0,1,.011.17v.136a1.246,1.246,0,0,1-.136.622.826.826,0,0,1-.385.351,3.415,3.415,0,0,1-.566.136,3.981,3.981,0,0,1-.611.045,5.561,5.561,0,0,1-.633-.034,3.654,3.654,0,0,1-.543-.1.576.576,0,0,1-.4-.328,1.675,1.675,0,0,1-.124-.713Zm18.37-7.308H754.5l-1.742,8.575-2.1-8.575h-3.62l3.122,10.565h1.9a6.289,6.289,0,0,1-.192,1,2.485,2.485,0,0,1-.328.724,1.221,1.221,0,0,1-.611.441,3.031,3.031,0,0,1-1.018.147h-.023a.065.065,0,0,0-.045-.023h-.091a.065.065,0,0,0-.045-.023h-.068v2.353q.181.022.351.034t.328.011h.17a.693.693,0,0,1,.17.023h.339a5.875,5.875,0,0,0,1.821-.249,3,3,0,0,0,1.256-.769,4.45,4.45,0,0,0,.814-1.244,8.237,8.237,0,0,0,.543-1.719l2.6-11.267Z" transform="translate(-670.305 -529.625)"/>
    <path id="TM" class="cls-1" d="M1085.687,541.406h.851v-.728h-2.5v.728h.8v2.427h.846v-2.427Zm4.972-.728h-1.368l-.568,1.982h-.033l-.6-1.982h-1.334v3.155h.832l-.071-2.417h.029l.8,2.417h.728l.786-2.417h.024l-.062,2.417h.833v-3.155Z" transform="translate(-994.615 -539.546)"/>
  </g>
</svg>
