<svg xmlns="http://www.w3.org/2000/svg" width="75.08" height="24.357" viewBox="0 0 75.08 24.357">
  <defs>
    <style>
      .cls-1 {
        fill: #b2b2b2;
      }

      .cls-2 {
        fill: #7f7f7f;
      }
    </style>
  </defs>
  <g id="VISA_grey" transform="translate(-46.775 -215.775)">
    <path id="Path_818" data-name="Path 818" class="cls-1" d="M227.8,242.094h-6.126l3.829-23.532h6.126Z" transform="translate(-148.479 -2.366)"/>
    <path id="Path_819" data-name="Path 819" class="cls-1" d="M68.042,218.563,62.2,234.747l-.691-3.485h0l-2.061-10.582a2.623,2.623,0,0,0-2.906-2.119H46.888l-.113.4a22.879,22.879,0,0,1,6.408,2.69l5.323,20.443h6.383l9.748-23.532Z" transform="translate(0 -2.366)"/>
    <path id="Path_820" data-name="Path 820" class="cls-1" d="M408.929,233.77l3.22-8.806,1.811,8.806Zm6.741,8.324H421.3l-4.9-23.532h-4.925a2.814,2.814,0,0,0-2.828,1.754L399.5,242.094h6.386l1.278-3.5h7.788Z" transform="translate(-299.441 -2.366)"/>
    <path id="Path_821" data-name="Path 821" class="cls-1" d="M304.654,221.855l.874-5.054a17.683,17.683,0,0,0-5.51-1.026c-3.04,0-10.26,1.329-10.26,7.79,0,6.08,8.473,6.155,8.473,9.348s-7.6,2.622-10.108.607l-.911,5.283a17.163,17.163,0,0,0,6.916,1.329c4.18,0,10.488-2.165,10.488-8.056,0-6.118-8.55-6.688-8.55-9.347S302.033,220.41,304.654,221.855Z" transform="translate(-204.116 0)"/>
    <path id="Path_822" data-name="Path 822" class="cls-2" d="M61.511,231.264l-2.061-10.582a2.623,2.623,0,0,0-2.906-2.119H46.888l-.113.4a23.741,23.741,0,0,1,9.093,4.565A18.349,18.349,0,0,1,61.511,231.264Z" transform="translate(0 -2.366)"/>
  </g>
</svg>
