<svg xmlns="http://www.w3.org/2000/svg" width="114.21" height="100" viewBox="0 0 114.21 100"><g transform="translate(-719 -297)"><path d="M941.823,4637.7l-37.72,34.167a5.365,5.365,0,0,1-7.05,0L859.33,4637.7a2.379,2.379,0,0,0-3.36.166,2.427,2.427,0,0,0,.179,3.4l37.722,34.167a10.106,10.106,0,0,0,13.413,0l37.722-34.167a2.427,2.427,0,0,0,.178-3.4,2.358,2.358,0,0,0-3.362-.167Zm-60.334,37.642-25.269,21.176a2.412,2.412,0,0,0-.307,3.379,2.347,2.347,0,0,0,1.833.857,2.3,2.3,0,0,0,1.518-.549l25.268-21.176a2.411,2.411,0,0,0,.308-3.379,2.353,2.353,0,0,0-3.35-.308Zm63.161-49.586H857.527a13.323,13.323,0,0,0-13.527,13.4V4698.7a13.287,13.287,0,0,0,13.527,13.349h43.721a25.487,25.487,0,0,0,4.34,6.139,24.829,24.829,0,0,0,40.094-6.258A13.584,13.584,0,0,0,958.21,4698.7v-59.557a13.5,13.5,0,0,0-13.562-13.395Zm-6.746,89.036a20.36,20.36,0,0,1-28.952,0,20.764,20.764,0,0,1,0-29.171,20.352,20.352,0,0,1,28.947,0,20.766,20.766,0,0,1,.005,29.172Zm15.547-16.084a8.723,8.723,0,0,1-5.711,7.9,25.458,25.458,0,0,0-6.467-24.364,25.087,25.087,0,0,0-35.677,0,25.461,25.461,0,0,0-6.269,25.031h-41.8a8.565,8.565,0,0,1-8.768-8.567v-59.554a8.593,8.593,0,0,1,8.768-8.588l87.121,0a8.609,8.609,0,0,1,8.8,8.59V4698.7Z" transform="translate(-125 -4328.75)" fill="#081018" fill-rule="evenodd" opacity="0.3"/><path d="M933.086,4694.278l-13.353,11.636-3.893-3.546a2.336,2.336,0,0,0-3.36.166,2.4,2.4,0,0,0,.164,3.379l5.453,4.972a2.316,2.316,0,0,0,1.6.642,2.411,2.411,0,0,0,1.556-.594l14.945-13.016a2.409,2.409,0,0,0,.238-3.377,2.379,2.379,0,0,0-3.35-.263Z" transform="translate(-124.864 -4328.709)" fill="#0848c8" fill-rule="evenodd"/></g></svg>