<svg xmlns="http://www.w3.org/2000/svg" width="104.364" height="100" viewBox="0 0 104.364 100"><g transform="translate(-305 -297)"><path d="M659.181,4621.725a3.227,3.227,0,0,0-3.434-.327L557.8,4671.944a3.222,3.222,0,0,0-1.745,3.165,3.26,3.26,0,0,0,2.234,2.813l40.478,12.739v27.27a2.759,2.759,0,0,0,1.494,2.834,2.446,2.446,0,0,0,1.113.285,3,3,0,0,0,2.568-1.418l15.655-22.4,18.469,5.824a4.548,4.548,0,0,0,.945.153,3.247,3.247,0,0,0,3.115-2.467l18.194-75.72a3.273,3.273,0,0,0-1.134-3.294Zm-56.022,91.341v-21.008l12.046,3.8Zm35-14.616-33.526-10.581,33.84-38.089a2.218,2.218,0,0,0-.172-3.119,2.159,2.159,0,0,0-3.1.15l-35.181,39.619-37.664-11.868,93.082-48.037Z" transform="translate(-251.038 -4324.051)" fill="#081018" fill-rule="evenodd" opacity="0.3"/><path d="M598.763,4690.662v27.27a2.759,2.759,0,0,0,1.494,2.834,2.446,2.446,0,0,0,1.113.285,3,3,0,0,0,2.568-1.418l15.444-22.472C619.4,4697.229,557.044,4677.516,598.763,4690.662Zm4.4,22.4v-21.008l12.046,3.8Zm1.475-25.2,33.84-38.089a2.218,2.218,0,0,0-.172-3.119,2.159,2.159,0,0,0-3.1.15l-35.181,39.619Z" transform="translate(-251.038 -4324.051)" fill="#0848c8" fill-rule="evenodd"/></g></svg>