<svg id="facebook" xmlns="http://www.w3.org/2000/svg" width="20" height="20" viewBox="0 0 20 20">
  <path id="Path_1455" data-name="Path 1455" d="M297.277,508.668q-3.2.521-6.422.961Q294.078,509.189,297.277,508.668Zm0,0" transform="translate(-283.044 -492)" fill="#0848c8"/>
  <path id="Path_1456" data-name="Path 1456" d="M302.4,507.793c-1.02.188-2.039.359-3.059.535C300.359,508.152,301.378,507.98,302.4,507.793Zm0,0" transform="translate(-289.375 -492)" fill="#0848c8"/>
  <path id="Path_1457" data-name="Path 1457" d="M285.137,510.34q-3.744.422-7.527.742Q281.389,510.766,285.137,510.34Zm0,0" transform="translate(-270.746 -492)" fill="#0848c8"/>
  <path id="Path_1458" data-name="Path 1458" d="M290.055,509.738c-1.2.16-2.406.309-3.609.449C287.649,510.047,288.856,509.9,290.055,509.738Zm0,0" transform="translate(-277.211 -492)" fill="#0848c8"/>
  <path id="Path_1459" data-name="Path 1459" d="M309.367,506.41c-.9.191-1.8.383-2.7.566C307.566,506.793,308.469,506.6,309.367,506.41Zm0,0" transform="translate(-296.249 -492)" fill="#0848c8"/>
  <path id="Path_1460" data-name="Path 1460" d="M326.664,502.113c-.727.207-1.453.4-2.18.605C325.211,502.515,325.937,502.32,326.664,502.113Zm0,0" transform="translate(-313.142 -492)" fill="#0848c8"/>
  <path id="Path_1461" data-name="Path 1461" d="M321.434,503.543c-.789.207-1.582.418-2.375.617Q320.248,503.861,321.434,503.543Zm0,0" transform="translate(-308.025 -492)" fill="#0848c8"/>
  <path id="Path_1462" data-name="Path 1462" d="M314.59,505.254c-.836.2-1.68.379-2.523.566C312.91,505.633,313.754,505.449,314.59,505.254Zm0,0" transform="translate(-301.362 -492)" fill="#0848c8"/>
  <path id="Path_1463" data-name="Path 1463" d="M277.527,511.09q-2.021.17-4.047.3Q275.507,511.26,277.527,511.09Zm0,0" transform="translate(-264.891 -492)" fill="#0848c8"/>
  <path id="Path_1464" data-name="Path 1464" d="M20,10A10,10,0,1,0,10,20l.176,0V12.213H8.027v-2.5h2.148V7.867a3.008,3.008,0,0,1,3.211-3.3,17.686,17.686,0,0,1,1.926.1V6.9H14c-1.037,0-1.238.493-1.238,1.216V9.709h2.48l-.323,2.5H12.76v7.4A10.005,10.005,0,0,0,20,10Zm0,0" fill="#0848c8"/>
  <path id="Path_1465" data-name="Path 1465" d="M272.914,511.43q-4,.258-8.023.4Q268.916,511.694,272.914,511.43Zm0,0" transform="translate(-258.596 -492)" fill="#0848c8"/>
  <path id="Path_1466" data-name="Path 1466" d="M264.754,511.836q-2.121.07-4.25.105Q262.631,511.906,264.754,511.836Zm0,0" transform="translate(-252.423 -492)" fill="#0848c8"/>
</svg>
