<svg xmlns="http://www.w3.org/2000/svg" width="90.019" height="90.002" viewBox="0 0 90.019 90.002">
  <defs>
    <style>
      .cls-1, .cls-3 {
        fill: #fff;
      }

      .cls-1, .cls-2 {
        fill-rule: evenodd;
      }

      .cls-2 {
        fill: #004990;
      }
    </style>
  </defs>
  <g id="Guvernul_Romaniei" transform="translate(-1162.984 -649.321)">
    <g id="Layer-1" transform="translate(1162.984 649.321)">
      <g id="Group_2983" data-name="Group 2983" transform="translate(90.019 90.002) rotate(180)">
        <path id="Path_1599" data-name="Path 1599" class="cls-1" d="M45.011,90A45,45,0,1,1,90.019,45,45.1,45.1,0,0,1,45.011,90" transform="translate(0 0)"/>
      </g>
      <g id="Group_2984" data-name="Group 2984" transform="translate(89.049 89.109) rotate(180)">
        <path id="Path_1600" data-name="Path 1600" class="cls-2" d="M43.942,87.884A43.942,43.942,0,1,1,87.887,43.94,44.025,44.025,0,0,1,43.942,87.884" transform="translate(0 0)"/>
      </g>
      <g id="Group_2985" data-name="Group 2985" transform="translate(2.267 2.256)">
        <path id="Path_1601" data-name="Path 1601" class="cls-1" d="M-799.025-29.808a41.6,41.6,0,0,1-57.709-11.449A41.611,41.611,0,0,1-845.29-98.98a41.614,41.614,0,0,1,57.719,11.451,41.6,41.6,0,0,1-11.453,57.721m12.417-58.362a42.851,42.851,0,0,0-59.328-11.773A42.855,42.855,0,0,0-857.7-40.615a42.848,42.848,0,0,0,59.332,11.766A42.843,42.843,0,0,0-786.608-88.17" transform="translate(864.896 107.136)"/>
      </g>
      <g id="Group_2986" data-name="Group 2986" transform="translate(18.016 18.004)">
        <path id="Path_1602" data-name="Path 1602" class="cls-1" d="M-501.454-24.5a25.81,25.81,0,0,1-35.8-7.1,25.811,25.811,0,0,1,7.11-35.8,25.8,25.8,0,0,1,35.792,7.1,25.807,25.807,0,0,1-7.1,35.792m8.087-36.452a27,27,0,0,0-37.441-7.434,27,27,0,0,0-7.427,37.451,26.992,26.992,0,0,0,37.444,7.425,26.992,26.992,0,0,0,7.424-37.441" transform="translate(542.794 72.939)"/>
      </g>
      <g id="Group_2987" data-name="Group 2987" transform="translate(12.321 46.646) rotate(180)">
        <path id="Path_1603" data-name="Path 1603" class="cls-1" d="M1.647,3.294A1.647,1.647,0,1,1,3.3,1.647,1.643,1.643,0,0,1,1.647,3.294" transform="translate(0)"/>
      </g>
      <g id="Group_2988" data-name="Group 2988" transform="translate(81.124 46.646) rotate(180)">
        <path id="Path_1604" data-name="Path 1604" class="cls-1" d="M1.645,3.294A1.647,1.647,0,1,1,3.291,1.647,1.642,1.642,0,0,1,1.645,3.294" transform="translate(0)"/>
      </g>
      <g id="Group_2989" data-name="Group 2989" transform="translate(10.097 24.094)">
        <path id="Path_1605" data-name="Path 1605" class="cls-3" d="M-102.477-38.343a5.994,5.994,0,0,0,.618-1.924l-1.593-.826c-.3-.158-.429-.154-.625.107l-.469.628-.7-.367,1.465-2.82.7.364-.152.511c-.1.334-.009.4.285.558l2.094,1.087a8.011,8.011,0,0,1-.8,3.333c-1.322,2.533-3.452,2.781-6.207,1.353-2.512-1.3-3.914-3.511-2.491-6.247a6.105,6.105,0,0,1,2.151-2.468l1.848,1.2-.446.856-1.453-.429a4.392,4.392,0,0,0-1.388,1.661,2.347,2.347,0,0,0-.243,2.048,6.492,6.492,0,0,0,2.547,2.172c1.976,1.027,3.9,1.066,4.864-.8" transform="translate(110.925 45.054)"/>
      </g>
      <g id="Group_2990" data-name="Group 2990" transform="translate(14.864 13.809)">
        <path id="Path_1606" data-name="Path 1606" class="cls-3" d="M-124.179-77.2c1.659,1.717.935,3.629-.275,4.8a2.924,2.924,0,0,1-4.609-.093L-132.63-76.2c-.231-.238-.361-.294-.641-.093l-.6.406-.548-.577,2.423-2.337.551.574-.432.583c-.205.273-.159.4.079.639l3.424,3.55a2.2,2.2,0,0,0,3.47-.009,2.26,2.26,0,0,0,.732-1.407c.021-.432-.243-.977-1.031-1.8l-3.347-3.475c-.238-.24-.357-.287-.637-.093l-.6.408-.557-.574,2.388-2.3.553.574-.426.583c-.21.268-.166.39.07.639Z" transform="translate(134.417 82.696)"/>
      </g>
      <g id="Group_2991" data-name="Group 2991" transform="translate(24.066 7.928)">
        <path id="Path_1607" data-name="Path 1607" class="cls-3" d="M-108.54,4.807l-.891.427-6.3-6.149a.779.779,0,0,0-.963-.177l-.448.156-.347-.718,3.263-1.572.341.7-.6.38c-.243.152-.32.248-.243.4a1.108,1.108,0,0,0,.2.256l4.861,4.922-1.064-6.76a1.4,1.4,0,0,0-.077-.28c-.079-.17-.222-.177-.5-.07l-.674.233-.341-.7,3.021-1.463.34.714-.425.273c-.282.18-.389.308-.326.8Z" transform="translate(117.488 5.604)"/>
      </g>
      <g id="Group_2992" data-name="Group 2992" transform="translate(35.752 5.985)">
        <path id="Path_1608" data-name="Path 1608" class="cls-3" d="M-17.8,10.644l-.119-.8.684-.233c.327-.1.366-.229.315-.567l-1.047-6.8c-.051-.334-.128-.485-.469-.473l-.716.026-.115-.749L-12.415,0l.273,2.3-.851.135-.229-.923c-.074-.329-.247-.359-.567-.313l-3.091.476.478,3.13,3.124-.473.149.97-3.121.478.548,3.543,3.1-.474c.324-.054.471-.126.448-.466l-.072-1.01.891-.137.441,2.344Z" transform="translate(19.267)"/>
      </g>
      <g id="Group_2993" data-name="Group 2993" transform="translate(45.542 5.959)">
        <path id="Path_1609" data-name="Path 1609" class="cls-3" d="M-36.111-76.237l1.187.165a1.893,1.893,0,0,0,1.356-.156,1.638,1.638,0,0,0,.734-1.366c.163-1.2-.609-1.719-1.813-1.882l-1-.14Zm-.534,3.886c-.049.336,0,.476.327.56l.856.224-.112.8-3.513-.48.112-.793.728-.019c.336-.009.406-.121.452-.454l.931-6.786c.056-.336.023-.46-.313-.562l-.691-.217.11-.784,3.513.485c1.84.252,2.974.976,2.728,2.823a2.631,2.631,0,0,1-2.78,2.258,1.83,1.83,0,0,1,.753.947l1.153,2.5a1.288,1.288,0,0,0,.958.851,2.41,2.41,0,0,0,.485-.023l-.175.721a1.87,1.87,0,0,1-1.094.133c-.72-.1-1.11-.709-1.406-1.337l-1.393-3.091a.983.983,0,0,0-.746-.648l-.481-.065Z" transform="translate(39.088 80.858)"/>
      </g>
      <g id="Group_2994" data-name="Group 2994" transform="translate(54.917 8.56)">
        <path id="Path_1610" data-name="Path 1610" class="cls-3" d="M-32.458-45.934c-.163.3-.182.429.094.639l.566.447-.385.7-2.951-1.614.378-.695.686.233c.322.114.425.032.588-.262l3.287-6.025c.163-.3.193-.462-.087-.66l-.569-.4.38-.7,1.989,1.085.614,8.969,2.948-5.4c.166-.3.2-.46-.07-.66l-.579-.406.382-.7,2.918,1.593-.375.7-.661-.263c-.313-.126-.434-.009-.594.287L-27.874-41.8l-1.04-.569-.6-8.955Z" transform="translate(35.133 54.275)"/>
      </g>
      <g id="Group_2995" data-name="Group 2995" transform="translate(64.861 14.803)">
        <path id="Path_1611" data-name="Path 1611" class="cls-3" d="M-71.2-11.474c-1.724,1.654-3.632.921-4.8-.294a2.918,2.918,0,0,1,.112-4.6l3.716-3.557c.245-.233.3-.357.1-.637l-.411-.6.579-.548,2.335,2.435-.579.548-.585-.432c-.266-.21-.393-.163-.639.07l-3.562,3.413a2.2,2.2,0,0,0,0,3.468,2.276,2.276,0,0,0,1.4.749c.427.021.978-.247,1.8-1.031l3.483-3.338c.242-.231.3-.354.1-.63l-.4-.6.567-.552,2.295,2.4-.574.548-.583-.432c-.273-.2-.4-.161-.637.073Z" transform="translate(77.067 21.717)"/>
      </g>
      <g id="Group_2996" data-name="Group 2996" transform="translate(69.725 24.702)">
        <path id="Path_1612" data-name="Path 1612" class="cls-3" d="M0-72.061l.7-.352.441.58c.2.275.329.271.63.117l6.1-3.1c.3-.151.382-.254.28-.583l-.217-.686.709-.366,1.561,3.081-.7.361-.471-.658c-.2-.273-.334-.268-.632-.115L1.9-70.482l1.215,2.4c.147.29.266.406.583.28l.94-.387.4.807-2.09,1.148Z" transform="translate(0 76.446)"/>
      </g>
      <g id="Group_2997" data-name="Group 2997" transform="translate(8.088 54.278)">
        <path id="Path_1613" data-name="Path 1613" class="cls-3" d="M-72.433-96.452l.537,1.11a1.954,1.954,0,0,0,.9,1.08,1.7,1.7,0,0,0,1.6-.147c1.12-.539,1.12-1.495.585-2.624l-.448-.933Zm-3.636,1.75c-.315.142-.408.268-.3.6l.3.865-.751.359L-78.4-96.172l.732-.354.439.611c.2.287.338.285.649.133l6.354-3.049c.315-.145.4-.252.3-.59l-.2-.716.734-.354,1.575,3.3c.828,1.726.849,3.114-.882,3.938a2.688,2.688,0,0,1-3.513-1.1A1.905,1.905,0,0,1-72.6-93.17l-1.488,2.407a1.326,1.326,0,0,0-.189,1.3,1.836,1.836,0,0,0,.294.4l-.719.261a1.97,1.97,0,0,1-.735-.858,2.02,2.02,0,0,1,.35-1.964l1.864-2.955a1,1,0,0,0,.13-1.01l-.215-.448Z" transform="translate(78.404 100.492)"/>
      </g>
      <g id="Group_2998" data-name="Group 2998" transform="translate(15.838 64.353)">
        <path id="Path_1614" data-name="Path 1614" class="cls-3" d="M-70.948-115.121a6.6,6.6,0,0,0-2.976,1.875c-1.756,1.777-2.022,3.657-.541,5.122a2.575,2.575,0,0,0,2.016.924,6.565,6.565,0,0,0,2.971-1.875c1.757-1.777,2.022-3.665.546-5.125a2.586,2.586,0,0,0-2.015-.921m-4.6,7.378c-2.09-2.073-1.374-4.388.728-6.512,1.852-1.868,4.549-2.718,6.965-.319,2.081,2.068,1.369,4.392-.732,6.505-1.858,1.871-4.551,2.715-6.96.327" transform="translate(76.797 116.044)"/>
      </g>
      <g id="Group_2999" data-name="Group 2999" transform="translate(25.013 70.065)">
        <path id="Path_1615" data-name="Path 1615" class="cls-3" d="M0-48.875l.306-.765.725.156c.345.079.411-.014.567-.331l3.116-6.522c.091-.245.033-.387-.238-.541l-.639-.345.3-.756,2.577,1.026L6.27-48.39l5.283-6.65,2.734,1.088-.306.765-.749-.21c-.317-.079-.453-.031-.569.252l-2.13,6.881c-.1.338-.116.446.184.632l.714.408-.308.765L7.831-45.766l.3-.768.725.2A.387.387,0,0,0,9.4-46.6l2.155-6.814-5.591,6.9-.915-.367.392-8.959L2.5-49.358a.414.414,0,0,0,.222.593l.646.345-.306.76Z" transform="translate(0 57.979)"/>
      </g>
      <g id="Group_3000" data-name="Group 3000" transform="translate(40.189 72.521)">
        <path id="Path_1616" data-name="Path 1616" class="cls-3" d="M-56.027-113.067l-.147.623-1.323,3.926,3-.025-1.374-3.9Zm.623-2.829,1.6,1.551-.525.373-1.6-1.218-1.554,1.239-.546-.371,1.586-1.565Zm-1.148,1.64,1.294-.014,3.032,8.416c.168.489.315.571.672.636l.537.087,0,.821-3.562.026,0-.789.761-.131c.247-.044.359-.154.359-.341a.7.7,0,0,0-.063-.27l-.621-1.761-3.683.028-.567,1.729a.83.83,0,0,0-.051.289c0,.212.126.317.376.357l.753.122,0,.79-3.329.021-.01-.819.532-.1c.345-.066.479-.152.644-.644Z" transform="translate(60.646 115.896)"/>
      </g>
      <g id="Group_3001" data-name="Group 3001" transform="translate(51.43 70.329)">
        <path id="Path_1617" data-name="Path 1617" class="cls-3" d="M-63.891-18.5c.133.322.224.417.569.345l.723-.152.306.765-3.228,1.257-.3-.758.639-.385c.3-.182.313-.315.182-.637l-2.572-6.576c-.131-.322-.243-.457-.581-.368l-.7.182-.3-.755,2.169-.854,7.483,5.44-2.311-5.9c-.126-.324-.226-.465-.565-.376l-.7.189-.3-.763,3.193-1.253.3.763-.644.338c-.3.166-.289.343-.17.667l3.112,7.94-1.127.446L-66.2-24.384Z" transform="translate(69.158 29.096)"/>
      </g>
      <g id="Group_3002" data-name="Group 3002" transform="translate(61.904 66.744)">
        <path id="Path_1618" data-name="Path 1618" class="cls-3" d="M-108.232-20.474l-2.72,2.155-.506-.641.506-.553c.233-.259.2-.394-.021-.663l-4.374-5.516c-.221-.28-.343-.336-.644-.17l-.658.364-.506-.642,2.72-2.16.5.641-.494.559c-.245.257-.205.387.009.656l4.383,5.526c.217.268.336.333.637.163l.66-.36Z" transform="translate(117.154 28.3)"/>
      </g>
      <g id="Group_3003" data-name="Group 3003" transform="translate(66.431 59.482)">
        <path id="Path_1619" data-name="Path 1619" class="cls-3" d="M-97.276,11.682l-.672-.5.334-.663c.166-.313.1-.432-.179-.637l-5.687-4.227c-.28-.208-.445-.263-.688-.011l-.5.541-.625-.462L-101.044,0l1.866,1.493-.534.711-.823-.509c-.3-.189-.443-.09-.639.178l-1.915,2.587,2.61,1.941,1.937-2.6.814.6L-99.663,7l2.958,2.2,1.934-2.594c.2-.266.25-.434-.012-.658l-.786-.69.555-.751L-93,5.918Z" transform="translate(105.296)"/>
      </g>
      <g id="Group_3004" data-name="Group 3004" transform="translate(71.558 54.189)">
        <path id="Path_1620" data-name="Path 1620" class="cls-3" d="M-128.175-38.661l-1.294,3.226-.758-.3.158-.731c.077-.345-.016-.443-.34-.567l-6.546-2.615c-.317-.124-.455-.124-.637.177l-.387.637-.763-.3,1.29-3.219.758.3-.156.728c-.079.341.017.441.34.569l6.546,2.615c.32.131.46.124.637-.18l.39-.634Z" transform="translate(138.742 42.358)"/>
      </g>
      <g id="Group_3005" data-name="Group 3005" transform="translate(36.47 36.765)">
        <path id="Path_1621" data-name="Path 1621" class="cls-1" d="M-144.708-120.783l-.082.044.037.086-.112-.009-.031.119-.119-.054-.1.077-.087-.072-.109.049-.032-.1-.117,0,.016-.1-.112-.021.028-.093-.1-.068.084-.061-.04-.093.091-.054v-.093l.11-.014.026-.1.119.037.074-.082.08.082.109-.037.031.1.1,0,.01.1.114.03-.021.1.091.068-.091.065Zm2.771.051c.031.315-.746.339-.781-.189.018-.534.772-.541.772-.242-.228-.038-.359.067-.359.242.016.138.135.234.368.189m-14.252-.9h8.041l.017-.028-.017-7.5h8.2l.01,7.511-7.924.009,0,.009c.436,1.533.844,2.82,1.258,3.9h2.589v-.413c-.128.182-.317.147-.415-.049-.159.154-.332.119-.394-.082a.228.228,0,0,1-.415-.1.471.471,0,0,1-.532.4c-.308.091-.4.08-.474.012-.242.082-.312.082-.405.039l.578-1.924c.108-.354.336-.525.812-.446.418.072.4.487.306.763a5.159,5.159,0,0,0,.858.084.076.076,0,0,0,.037,0,.172.172,0,0,0-.049-.007.758.758,0,0,0,.24-.317h-.151a.711.711,0,0,0,.249-.3c-.119.077-.488.3-.627.072,0-.035.4-.065.434-.149-.016-.014-.009-.033-.016-.049a.607.607,0,0,0-.457.028c-.054-.226.072-.317.494-.313.889-.263.684.047.956.488-.049,0-.119-.009-.17-.009a1.064,1.064,0,0,0,.2.291.772.772,0,0,0-.189-.035,1.173,1.173,0,0,0,.158.282.1.1,0,0,0-.046.014.115.115,0,0,1,.037.007,4.1,4.1,0,0,0,.555-.144c-.127-.268-.147-.607.31-.726a.6.6,0,0,1,.688.287l1.048,2.078c-.035.075-.133.075-.462-.007-.112.058-.175.068-.432-.035-.231.042-.373,0-.565-.415-.03.206-.163.254-.36.1-.046.219-.217.254-.364.063-.042.21-.2.257-.37.11l.042.413,2.948,0v.611h.012v1.465c-.031,1.717-2.606,2.466-3.975,2.993-1.475-1.512-2.753-3.814-4.217-8.945-.488,1.7-.945,3.1-1.39,4.25l-.362.032v-.368h-.231a2.241,2.241,0,0,0,.158-.7c.033-.161.194-.145.208-.037.126-.152-.058-.343-.245-.175a.248.248,0,0,1-.019-.278c.075-.065.228-.058.233.074.168-.107-.063-.548-.366-.189a.323.323,0,0,1-.089-.214c.1-.119.2-.1.212.014.171-.133-.109-.413-.313-.184-.189-.336-.326-1.143.15-1.253a.493.493,0,0,1,.562.233c.017.077.093.215-.051.268a.188.188,0,0,0,.131.1c-.205.142.1.48.1.651.073-.1.1-.156.073-.248.037.04.033.063.049.122.094-.122.014-.21-.016-.291a1.008,1.008,0,0,1,.1.114c.049-.233.016-.273-.049-.354.07-.011.082-.063.121-.114-.224-.021-.345-.515-.639-.625-.84-.25-1.064.532-.828,1.227.1.3.3.756.385,1.045a1.231,1.231,0,0,1-.11.817h-.271v.368H-151a9.9,9.9,0,0,1-1.092-1.376.974.974,0,0,0,.481.2c-.082-.129-.17-.18-.17-.336a.591.591,0,0,0,.6.147.654.654,0,0,1-.334-.6,2.226,2.226,0,0,1,.334.325.564.564,0,0,0-.084-.7c.138.1.112.044.266.079-.054-.14-.023-.157-.158-.28.135.054.079,0,.188,0-.044-.1-.011-.156-.184-.257.119,0,.119-.056.173-.112-.4-.122-.158-.266-.6-.415.131-.2-.163-.331-.263-.133-.075-.033-.075-.058-.154-.07.037-.282-.333-.254-.287,0a1.786,1.786,0,0,0-.417.149.3.3,0,0,0-.021.149,1.99,1.99,0,0,1-.455.2c-.084,0-.1.075,0,.075a2.413,2.413,0,0,0,.044.308c0,.058.04.051.047,0a.466.466,0,0,1,.21-.143c0-.06.033-.06.037,0,.049.019.084.068.081.246-.641-.056-.728-.056-.776-.178-.031-.147-.133-.114-.056.04.026.082.056.138.8.2a.4.4,0,0,1-.287.086c0-.068-.035-.068-.037,0-.017,0-.033.026-.033.075a.412.412,0,0,0-.051.072,1.376,1.376,0,0,0-.494-.072c-.273-.361-.644-.161-1.005-.774l-.01,0h0l.11-.056.131.238.135-.068-.135-.235a3.353,3.353,0,0,1,1.4-.32c.185-.194.284-.273.46-.469a2.8,2.8,0,0,0-1.936.639l-.014,0-.147-.256-.131.065.083.145a.256.256,0,0,0-.324-.084c-.156,0-.234.021-.289.138-.191.023-.2.366-.047.427l.01,0v0l-.081.044.079.126.182-.091a.182.182,0,0,0,.086.175c.037-.028.079-.058.124-.1a1.118,1.118,0,0,0,.091.346c.044-.042.075-.065.109-.1a1.162,1.162,0,0,0,.051.343,1.565,1.565,0,0,1,.145-.126c-.019.163-.019.274.072.353a.606.606,0,0,0,.054-.166.951.951,0,0,0,.3.226c.007.028.056.072.072.1a.374.374,0,0,1-.254.112.321.321,0,0,0,.35.049c-.068.073-.1.147-.193.182a1.134,1.134,0,0,0,.289.026,1.026,1.026,0,0,0-.728.273c.03-.121.1-.268-.021-.238a.137.137,0,0,1-.161-.035c-.068,0-.059.084-.059.18-.009-.145-.042-.271-.147-.229-.03.063-.072.1-.187.084-.028.028,0,.075.028.108a.549.549,0,0,1,.056.054.2.2,0,0,1-.056-.054c-.056-.05-.105-.063-.147-.01a.169.169,0,0,1-.044.171c.021.079.031.063.191.068-.135,0-.171.019-.208.084a.235.235,0,0,1,.079.219c.11.063.35-.058.446-.156a.216.216,0,0,1,0,.161.767.767,0,0,0,.387-.2c.019.058-.018.1-.009.189a.443.443,0,0,0,.259-.137c-.021.065-.028.1-.046.17a.345.345,0,0,0,.275-.17.43.43,0,0,0,0,.154c.173-.082.2-.074.3-.2a.413.413,0,0,0-.016.2c.157-.084.21-.119.259-.252a1.119,1.119,0,0,1,.03.175.618.618,0,0,0,.221-.208c.01.046-.037.105-.037.17a.344.344,0,0,0,.242-.15c.14.474.763.474.861.744v.261h-.77v-.359h-.8v.368h-.775v-.368h-.821v.368h-.882Zm.534-1.366v-3.74a.941.941,0,0,1,1.1-.989c.525.112.767.362.525.875a2.554,2.554,0,0,0,1.033.369,2.357,2.357,0,0,1,.282-.422c-.066.016-.1.016-.161.028.149-.147.324-.186.357-.329a.4.4,0,0,0-.151-.3.868.868,0,0,1-.205.009v.331h-.2v-.413a.276.276,0,0,0-.128.14c-.152-.247-.042-.387.133-.462,0-.161,0-.275,0-.432a1.539,1.539,0,0,0-.3.036c0-.075-.011-.166-.011-.233a1.573,1.573,0,0,0,.31.016,1.993,1.993,0,0,0-.051-.308c.1.007.2,0,.3,0a2.08,2.08,0,0,0-.049.308,1.084,1.084,0,0,0,.3-.028c0,.094,0,.156,0,.222-.086-.012-.219-.012-.3-.021,0,.1.009.3.009.394a.392.392,0,0,1,.108-.018l0,0h0c.114-.24.532-.3.8-.245.362.084.325.5.646.678-.1.029-.117.054-.187.012.037.182.129.221.175.368-.086-.016-.093-.016-.156-.028a1.244,1.244,0,0,1,.185.364,1.036,1.036,0,0,0-.173-.019,1.226,1.226,0,0,1,.149.371,1.828,1.828,0,0,0,.966-.241c-.179-.485-.21-.781.434-.987.485-.086,1.155.028,1.155,1.077v3.523a.743.743,0,0,0,.2.586c-.242-.059-.429-.149-.667-.59-.145-.011-.281-.1-.5-.49-.426-.131-.464-.142-.464-1.512-.042.121-.086.121-.222.175a.354.354,0,0,1-.27-.191.2.2,0,0,1-.2.156.573.573,0,0,1-.168-.131c.131.215.427.681.636,1-.14-.04-.179-.047-.324-.082.24.427.287.518.6,1.01.023.049.042.03.091.03.177.018.224-.094.331.009a.1.1,0,0,0,0,.012l0,0c.1-.035.229.014.2.2a.144.144,0,0,0-.163-.077.145.145,0,0,1,0,.026c-.154.051-.128-.049-.313-.009.129.154.271.11.292.271,0,.021,0,.035-.019.042l.007.03a.2.2,0,0,1-.014.271c-.04-.206-.108-.168-.124-.208l-.014-.007c0,.007-.03.009-.061,0-.217-.17-.068-.215-.165-.348-.035-.014-.042-.021-.066.007-.07.224.11.25-.07.413a.17.17,0,0,1-.058,0c.028.077-.114,0-.122.205-.165-.124-.123-.22-.046-.248l0-.007c-.007-.014-.032,0-.042-.019.01-.1.163-.186.236-.345,0-.028,0-.028-.042-.042-.2.07-.094.14-.327.168a.063.063,0,0,1-.025-.023c-.03.065-.126-.01-.133.149-.1-.084-.051-.268.061-.268.017,0-.026-.023,0-.051.065-.075.163-.014.331-.1.037-.018.018-.033.018-.033-.186-.268-.494-.623-.641-.9a.536.536,0,0,1-.107.34,7.006,7.006,0,0,0-.42-.717c-.035.058-.021.04-.076.075-.04,0-.08-.044-.112-.051a3.75,3.75,0,0,0,.639,1.619c-.1.077-.392.166-.518.238a2.531,2.531,0,0,0,.163.249,3.038,3.038,0,0,1-.718.324,4.775,4.775,0,0,1-.8-.324,1.493,1.493,0,0,0,.154-.292c-.238-.119-.359-.173-.63-.294a4.022,4.022,0,0,0,.886-1.519c-.032.014-.058.023-.11.049a.726.726,0,0,0-.079-.123,2.186,2.186,0,0,1-.441.581.259.259,0,0,1-.077-.191c-.061.061-.334.317-.842.823a.034.034,0,0,0,.023.042c.156.084.27.028.327.091.009.026.009.039,0,.047h-.021c.1.049.177.2.086.27-.005-.156-.108-.091-.131-.144v0c0,.007-.007.014-.028.016-.079,0-.375-.217-.375-.109.072.149.231.233.241.324-.009.021-.094,0-.054.028s.122.13-.039.233c-.007-.168-.114-.135-.13-.17,0-.01-.009.007-.017,0-.135-.023-.04-.2-.11-.413-.018-.033-.026-.03-.063-.014-.112.124.049.173-.173.329-.037.011-.054.009-.07,0-.01.063-.082,0-.119.215-.079-.093-.109-.194-.014-.273.021-.021-.014-.017-.026-.058.028-.15.173-.115.289-.264-.17-.033-.147.044-.294-.011a.139.139,0,0,0-.177.077c-.042-.18.091-.233.194-.2l0,0s0,0,0,0c.114-.108.154,0,.338-.012.051,0,.063,0,.1-.035.135-.138.7-.807.837-.966a.419.419,0,0,1-.3,0c.13-.184.327-.59.5-.907,0-.007-.061.121-.163.151a.259.259,0,0,1-.194-.168c-.075.119-.112.112-.233.194a.4.4,0,0,1-.245-.177c-.058.536-.117,1.04-.471,1.25a.8.8,0,0,1-.551.625.945.945,0,0,1-.618.665,1.645,1.645,0,0,0,.142-.4m.793-5.676.1-.068v-.114l.114-.011.031-.114.135.049.082-.1.081.1.124-.049.033.114.114.011v.11l.131.037-.028.126.1.067-.091.084.037.089-.091.054.035.109-.122-.007-.033.126-.123-.063-.116.091-.091-.077-.119.056-.04-.112-.119,0,.014-.112-.122-.025.023-.115-.109-.084.1-.063Zm3.835-.1c0-.255.992-.362,1.015.291-.04.637-1.015.544-1.015.243a.331.331,0,0,0,.525-.243.391.391,0,0,0-.525-.291m6,16.156a1.178,1.178,0,0,1-.961-.2,1.206,1.206,0,0,1-1.1.311h-.016c-.231.2-.52.109-.226-.084-.241-.049-.579-.152-.579-.42.038-.093.145-.1.234,0l.014-.005c.13-.086.09-.039.165-.175-.455-.476.721-.907.441-1.106-.135-.109-.25.033-.327.14-.129-.224.051-.434.406-.434a4.7,4.7,0,0,0-.566-.994,1.631,1.631,0,0,1-.264-1.294c.222-.991.033-.814-.035-1.1-.086-.35.022-.494.322-.651-.2.336.562.539.266,1.055.882.147.3.875.55,1.264-.648-.234-.263-.723-.651-.732-.23-.011.656,1.234.658,1.32.037-.056.075-.07.163-.077a.25.25,0,0,1,.192-.082,2.47,2.47,0,0,0-.012.6,5.244,5.244,0,0,1,.565.825,1.729,1.729,0,0,1-.059,1.379,6.273,6.273,0,0,0,.572-.287.4.4,0,0,1,.03.245.477.477,0,0,1,.334.136.533.533,0,0,0-.345.17.262.262,0,0,1,.233.2m-3.751.03c.257.175.012.27-.219.084h.005l-.026-.01a1.3,1.3,0,0,1-1.162-.3,1.5,1.5,0,0,1-1.059.294.329.329,0,0,1,.287-.246.4.4,0,0,0-.324-.2,1.056,1.056,0,0,1,.363-.142.452.452,0,0,1,0-.259c.194.133.334.145.593.287a1.684,1.684,0,0,1-.063-1.379,6.475,6.475,0,0,1,.7-.956l-.109.131a2.26,2.26,0,0,0,0-.6.253.253,0,0,1,.2.082c.091.007.129.021.168.077.562-.686,1.066-1.332.691-1.32-.408.009,0,.5-.683.732.259-.39-.346-1.117.576-1.264-.317-.516.476-.718.273-1.055.313.156.413.3.333.651-.067.287-.275.11-.039,1.1a1.577,1.577,0,0,1-.275,1.294,4.693,4.693,0,0,0-.581.994c.371,0,.553.21.422.434-.088-.107-.2-.249-.34-.14-.287.2.923.63.454,1.106.079.135.035.089.18.175l.009.005c.093-.1.2-.089.25,0,0,.268-.36.371-.616.42m-3.378-1.71h-.011l.011-1.255.271-.35.483-.217.486.2.279.371.1.43c-.2.364-.39.7-.59,1.009a.847.847,0,0,1-.3-.182.478.478,0,0,1-.733,0m-1.565.028h-.007a.585.585,0,0,1-.793-.145.562.562,0,0,1-.785.119h-.007v-1.266l.343-.422.476-.128.509.172.266.4Zm-1.071,1.129c2.225.718,4.439,1.479,6.653,2.23,2.484-.749,8.237-2.216,8.588-4.255v-.005a3.3,3.3,0,0,0,.031-.513l-.011-14-17.106.007v14.558c0,.035.005.063.005.093.1.961.984,1.5,1.841,1.88" transform="translate(156.638 129.675)"/>
      </g>
      <g id="Group_3006" data-name="Group 3006" transform="translate(47.761 49.625)">
        <path id="Path_1622" data-name="Path 1622" class="cls-1" d="M-4.638-2.654h.185v.263H-4.1v-.471h-.175v-.234H-4.1v-.364h-.175v.2h-.182v-.2h-.185v.2h-.189v-.2h-.193v.364h.193v.234h-.193v.471h.382Z" transform="translate(5.021 3.458)"/>
      </g>
      <g id="Group_3007" data-name="Group 3007" transform="translate(27.541 22.592)">
        <path id="Path_1623" data-name="Path 1623" class="cls-1" d="M-321.181-209.422c.082,2.158-3.228,2.713-9.051,4.873-5.54-1.9-8.831-2.354-8.932-4.425v-15.349h17.983ZM-334.316-233.2v-.385a9.05,9.05,0,0,1,1.953.35l.227.555a7.127,7.127,0,0,0-2.179-.52m3.264-1.713c0,.009,0,.021.007.026a.6.6,0,0,1-.453.717.6.6,0,0,1-.725-.436c0-.012-.007-.024-.007-.026Zm7.688,30.651c.011.026.014.038.011.044l-.021-.044Zm.028.007c.012.028.023.061.035.091a.948.948,0,0,1-.049-.094c.007,0,.011,0,.014,0m9.662-13.252c.077,0,.527.268.606.268-.533-1.621-.4-3.893-.366-6.428.168.068.5.336.667.408a19.6,19.6,0,0,1-.1-2.573c0-5.038-2.624-6.386-4.679-6.947-3.665-.837-6.217,2.062-5.335,5.137a2.847,2.847,0,0,1-1.644,2.1c-.739.257-1.78.32-2.214-.527a.977.977,0,0,0,.581.2,2.224,2.224,0,0,1-.454-.959,8.039,8.039,0,0,0-.7-2.167,2.513,2.513,0,0,1,.7,1.05,3.494,3.494,0,0,0-.515-2.622,1.414,1.414,0,0,1,.618.406,1.608,1.608,0,0,0-.179-1.08,1.878,1.878,0,0,0-.439-1.437.93.93,0,0,0,.949-.051,2.169,2.169,0,0,1-1.164-.982c-.448-.667-.51-1.854-2-1.829a11.73,11.73,0,0,0-2.6.108,8.916,8.916,0,0,1-1.945.292l.063.41-.4.1c-.031.01-.065.019-.105.028V-235l0,0v-.061l0-.149v-.667a14.459,14.459,0,0,1,1.53.119l-.023-1.043c-.541.08-1.05.124-1.6.163.061-.506.115-.975.208-1.467a8.068,8.068,0,0,1-1.059,0,13.646,13.646,0,0,1,.189,1.453c-.513-.029-1-.066-1.507-.129l.031,1c.219-.033,1.157-.054,1.486-.058v1.409c-.541.184-1.008.572-.572,1.6.149-.357.266-.585.581-.688a20.12,20.12,0,0,1-.291,5.006,1.651,1.651,0,0,1,1.362-.019,14.152,14.152,0,0,1-.325-4.276,1.175,1.175,0,0,1,.173.019A2.024,2.024,0,0,1-332.2-231.4c.224.886-.467,1.365-.847,2.065-.721,1.446-.45,2.643-1.122,3.352a2.284,2.284,0,0,0,.465-.014,2.09,2.09,0,0,1-2.319.5,2.9,2.9,0,0,1-1.518-1.843c1.145-3.721-2.706-6.077-5.475-5.263-1.481.434-4.36,1.377-4.474,7.021a10.824,10.824,0,0,1-.166,2.162,2.933,2.933,0,0,0,.595-.238c0,2.34,0,5.475-.485,6.515a1.44,1.44,0,0,0,.6-.313c.2,9.678.325,16.772-.368,18.456a3.646,3.646,0,0,0,2.118-1.218,7.5,7.5,0,0,0,.819-.152v-11.875c-.457-1.752-.9-3.508-1.32-5.265a3.2,3.2,0,0,1,.007-1.82l.2-.7.562.478a3.576,3.576,0,0,1,.551.569v-7.366a.264.264,0,0,1,.264-.262.261.261,0,0,1,.261.262v8.418c1.2,3.446,2.106,6.989,3.028,10.525V-227.85a.261.261,0,0,1,.261-.268.269.269,0,0,1,.271.268v22.44c.054.228.117.446.173.672a5.433,5.433,0,0,0,1.015-2.522,3.986,3.986,0,0,0,1.7,1.19c-.653,1.129-.749,1.46-1.806,2.015a2.286,2.286,0,0,0,2.2-.042.644.644,0,0,1-.035.126c-.208.382-.362.73-.546,1.049a5.292,5.292,0,0,1-.705.9c-.576.187-.839-.1-1.471.04a.058.058,0,0,1-.033.016c-.044-.109-.077-.212-.054-.221a.255.255,0,0,0,.177-.138.409.409,0,0,0,.252-.14.2.2,0,0,0,.228-.131l.894-.261c.1.049.233.088.275.007a.574.574,0,0,0,.392-.415.564.564,0,0,0-.6-.115c-.091-.06-.17.091-.184.155l-.9.273a.273.273,0,0,0-.292,0,.23.23,0,0,0-.277.054.421.421,0,0,0-.224-.054c-1.357-4.8-2.561-10.161-4.206-14.884a2.8,2.8,0,0,0-.919-1.363,2.722,2.722,0,0,0,0,1.586c1.124,4.764,2.664,10.224,3.9,15.008.007,0-.182.058-.226.147-.065-.031-.212.042-.268.112a.218.218,0,0,0-.217.135l-.861.264c-.117-.04-.2-.065-.268.019a.6.6,0,0,0-.446.389.593.593,0,0,0,.592.107.26.26,0,0,0,.264-.163l.844-.252c.065.082.2.049.287,0a.273.273,0,0,0,.287-.033.283.283,0,0,0,.261.042.24.24,0,0,1,.075-.014c.012.039.058.2.1.329-.578.254-.637.5-.515.786a.922.922,0,0,0,.035.143.553.553,0,0,0-.38.753.446.446,0,0,0,.193.354l.01,0h.018c-.21.254-.352.693.289.8-.089.534.231.515.474.6a1,1,0,0,0,.462.221,1.761,1.761,0,0,1,.8.252,1.036,1.036,0,0,0,.723-.065.529.529,0,0,0,.238-.281c.361-.165.438-.238.508-.646a6.989,6.989,0,0,0,.7-1.885,9.222,9.222,0,0,1,1.577-2.811,2.152,2.152,0,0,0,.623,2.055,6.3,6.3,0,0,1,1.463-3.514c.2.058.655-.028.632.194-.42,4.005-3.235,5.344-4.541,6.517.49.443,1.124.863,1.661,1.355a6.985,6.985,0,0,1-.494.609c.369.222,1.9,1.171,2.333,1.444-.161.308-.341.5-.56.844,1.7,1.09,2.568,1.512,4.3,2.52.023-.012,2.827-1.358,4.614-2.391-.163-.221-.338-.485-.52-.765.968-.572,1.773-1.11,2.515-1.593-.2-.221-.312-.354-.518-.614.929-.671,1-.73,1.721-1.287-2.939-2.76-3.965-3.636-5.094-6.788.327-.112.646-.222.942-.329a7.561,7.561,0,0,1,1.71,3.473c.606-.6.465-1.192.511-2.018a.584.584,0,0,1,.075.073l-.017-.009a.066.066,0,0,0-.028-.026c.007,0,.007,0,.007.011s-.014-.011-.028-.026c.676,1.127,1.075,1.743,1.6,2.643a3.922,3.922,0,0,0,.187,1.04h.021a2.254,2.254,0,0,0,.464.686,1.019,1.019,0,0,0,.567.814.447.447,0,0,0,.093.217,1.339,1.339,0,0,0,1.048.163,1.078,1.078,0,0,1,.583-.222c.222-.033.222-.056.478-.1.2-.107.364-.156.487-.217a.352.352,0,0,0,0-.52c.315-.219.749-.469.333-.77a.321.321,0,0,1-.065-.042.806.806,0,0,0-.093-.971,1.39,1.39,0,0,0-.634-1.117.074.074,0,0,1-.023,0c.725-2.454,1.479-5.605,2.223-8.442.322.022.375-.154.424-.335.233-.065.289-.241.121-.436a.38.38,0,0,0,.241-.552,11.008,11.008,0,0,0,1.7-2.121,7.653,7.653,0,0,0-.509-2.249c.03-.119.1-.4-.205-.472a.521.521,0,0,0-.063-.072.312.312,0,0,0,.159-.27.308.308,0,0,0-.313-.308.311.311,0,0,0-.315.308.276.276,0,0,0,.033.13.867.867,0,0,0-.2.091.453.453,0,0,0-.506.343,12.546,12.546,0,0,0-1.6,1.7,10,10,0,0,0,.21,2.484.367.367,0,0,0-.154.613c-.266.079-.277.266-.125.443a.391.391,0,0,0,.149.465c-.674,2.727-1.381,5.158-2.421,8.348a6.232,6.232,0,0,1-1.63-.118,14.764,14.764,0,0,1-1.113-1.825,3.541,3.541,0,0,0,2-.009,4.635,4.635,0,0,1-2.069-1.9,4.85,4.85,0,0,0,1.845-1.25,3.361,3.361,0,0,0,1.316,2.426c.07-.21.129-.422.2-.632V-227.7a.264.264,0,0,1,.261-.268.262.262,0,0,1,.261.268v20.287c.294-1.033.574-2.071.835-3.121a.833.833,0,0,1-.119-.48.665.665,0,0,1,.046-.711.764.764,0,0,1,.208-.656c-.075-.458-.135-.919-.166-1.376a5.119,5.119,0,0,1,0-.963v-.056l.03-.056a2.821,2.821,0,0,1,.691-.856c.322-.306.639-.6.942-.928a.958.958,0,0,1,.562-.523v-9.055a.264.264,0,0,1,.264-.266.266.266,0,0,1,.261.266v8.559a.8.8,0,0,1,.3-.058.78.78,0,0,1,.786.768.579.579,0,0,1-.019.158.656.656,0,0,1,.142.324.814.814,0,0,1-.007.317c.119.434.256.858.371,1.29a2.5,2.5,0,0,1,.114,1.075l0,.017,0,.016a3.513,3.513,0,0,1-.63.958c-.324.39-.669.777-1.007,1.159a.822.822,0,0,1-.044.35V-200.9a2.08,2.08,0,0,0,1.057.36,3.585,3.585,0,0,0,1.9.9c-1.052-1.243-.634-10.292-.672-17.859" transform="translate(347.659 238.104)"/>
      </g>
      <g id="Group_3008" data-name="Group 3008" transform="translate(31.341 50.446)">
        <path id="Path_1624" data-name="Path 1624" class="cls-1" d="M-11.317,3.009l.576-.179a.739.739,0,0,1,.3-.175.865.865,0,0,1,.151-.089C-10.923.1-11.595-2.354-12.25-4.813V3.375a1.074,1.074,0,0,1,.464-.3.591.591,0,0,1,.469-.07" transform="translate(12.25 4.813)"/>
      </g>
      <g id="Group_3009" data-name="Group 3009" transform="translate(56.63 50.411)">
        <path id="Path_1625" data-name="Path 1625" class="cls-1" d="M-21.164-113.993c-.213.8-.417,1.6-.625,2.4-.36,1.432-.721,2.876-1.12,4.308a3.648,3.648,0,0,0,1.36,1.052,3.716,3.716,0,0,0,.727.938v-8.981a.663.663,0,0,1-.342.278" transform="translate(22.908 114.271)"/>
      </g>
      <g id="Group_3010" data-name="Group 3010" transform="translate(50.492 49.625)">
        <path id="Path_1626" data-name="Path 1626" class="cls-1" d="M-4.642-2.654h.182v.263H-4.1v-.471h-.17v-.234h.17v-.364h-.17v.2H-4.46v-.2h-.182v.2h-.191v-.2h-.191v.364h.191v.234h-.191v.471h.383Z" transform="translate(5.025 3.458)"/>
      </g>
      <g id="Group_3011" data-name="Group 3011" transform="translate(49.809 50.955)">
        <path id="Path_1627" data-name="Path 1627" class="cls-1" d="M-2.321-14.121h-.191v.371h.191v.238h-.191v.466h.38v-.273h.184v.273h.357v-.466h-.17v-.238h.17v-.371h-.17v.208h-.187v-.208h-.184v.208h-.189Z" transform="translate(2.513 14.121)"/>
      </g>
      <g id="Group_3012" data-name="Group 3012" transform="translate(48.442 50.955)">
        <path id="Path_1628" data-name="Path 1628" class="cls-1" d="M-2.344-14.121h-.193v.371h.193v.238h-.193v.466h.387v-.273h.18v.273h.359v-.466h-.175v-.238h.175v-.371h-.175v.208h-.184v-.208h-.18v.208h-.193Z" transform="translate(2.538 14.121)"/>
      </g>
      <g id="Group_3013" data-name="Group 3013" transform="translate(49.13 49.625)">
        <path id="Path_1629" data-name="Path 1629" class="cls-1" d="M-4.585-2.654H-4.4v.263h.352v-.471h-.168v-.234h.168v-.364h-.168v.2H-4.4v-.2h-.188v.2h-.189v-.2h-.189v.364h.189v.234h-.189v.471h.378Z" transform="translate(4.963 3.458)"/>
      </g>
      <g id="Group_3014" data-name="Group 3014" transform="translate(51.175 50.955)">
        <path id="Path_1630" data-name="Path 1630" class="cls-1" d="M-2.321-14.121h-.191v.371h.191v.238h-.191v.466h.385v-.273h.18v.273h.361v-.466h-.17v-.238h.17v-.371h-.17v.208h-.191v-.208h-.18v.208h-.194Z" transform="translate(2.513 14.121)"/>
      </g>
      <g id="Group_3015" data-name="Group 3015" transform="translate(51.856 49.625)">
        <path id="Path_1631" data-name="Path 1631" class="cls-1" d="M-4.646-2.654h.184v.263h.355v-.471h-.166v-.234h.166v-.364h-.166v.2h-.189v-.2h-.184v.2h-.191v-.2h-.192v.364h.192v.234h-.192v.471h.383Z" transform="translate(5.029 3.458)"/>
      </g>
      <g id="Group_3016" data-name="Group 3016" transform="translate(45.787 37.463)">
        <path id="Path_1632" data-name="Path 1632" class="cls-1" d="M-13.808-37.232a2.055,2.055,0,0,0,.716-.154.3.3,0,0,0,.03.352.487.487,0,0,0,.121.359.26.26,0,0,0,.079.241,2.743,2.743,0,0,0,.418,1.089.482.482,0,0,0-.364.46c0,.352.378.492.649.492a.477.477,0,0,0,.443.281.494.494,0,0,0,.46-.281c.268,0,.653-.14.653-.492a.488.488,0,0,0-.371-.46,2.693,2.693,0,0,0,.415-1.089.228.228,0,0,0,.094-.241.552.552,0,0,0,.121-.359.306.306,0,0,0,.019-.352,2.032,2.032,0,0,0,.73.154A1.147,1.147,0,0,0-8.454-37.9c-.665.149-.83-.424-1.4-.424.234-.007.455-.436.455-1.048a1.626,1.626,0,0,0-1.381-1.584,1.294,1.294,0,0,1,.717,1.264.908.908,0,0,1-.515.9c-.332-.189-.5-.126-.782.187a.313.313,0,0,0-.35-.24.309.309,0,0,0-.34.24c-.271-.313-.441-.376-.787-.187a.921.921,0,0,1-.5-.9,1.286,1.286,0,0,1,.716-1.264A1.621,1.621,0,0,0-14-39.371c0,.612.219,1.041.455,1.048-.57,0-.735.574-1.4.424a1.139,1.139,0,0,0,1.138.667" transform="translate(14.946 40.954)"/>
      </g>
      <g id="Group_3017" data-name="Group 3017" transform="translate(48.165 37.621)">
        <path id="Path_1633" data-name="Path 1633" class="cls-1" d="M-4.465,1.5l.483-.252.518.259L-3.532.964l.385-.406-.539-.1-.3-.551-.257.551-.594.1.45.383Z" transform="translate(4.833 0.088)"/>
      </g>
      <g id="Group_3018" data-name="Group 3018" transform="translate(45.669 42.456)">
        <path id="Path_1634" data-name="Path 1634" class="cls-1" d="M-7.031-7.138c-.506.15-.439.178-.455.29.022.081.126.1.231.179.084.08.1.175.224.175.151-.04.238-.035.243-.474,0,.471.1.422.21.471.133,0,.116-.06.259-.168.136-.075.18-.066.21-.175-.014-.091.068-.17-.439-.308.471.135.5.073.583-.011.063-.107-.091-.182-.117-.285s-.014-.175-.093-.247c-.112-.01-.159-.093-.474.266.329-.38.248-.387.17-.494-.119-.072-.231,0-.341-.012a.446.446,0,0,0-.289.054c-.033.066-.163.114.168.455-.35-.361-.341-.247-.46-.247-.105.042-.065.142-.112.257-.032.1-.13.14-.088.24.088.1.073.173.569.035" transform="translate(7.611 7.953)"/>
      </g>
      <g id="Group_3019" data-name="Group 3019" transform="translate(52.356 44.053) rotate(178.007)">
        <path id="Path_1635" data-name="Path 1635" class="cls-1" d="M0,1.2c.006.518,1.417.6,1.452-.416C1.465-.2.048-.175,0,.4A.527.527,0,0,1,.814.762.59.59,0,0,1,0,1.2" transform="translate(0 0)"/>
      </g>
      <g id="Group_3020" data-name="Group 3020" transform="translate(42.213 20.366)">
        <path id="Path_1636" data-name="Path 1636" class="cls-3" d="M-53.537-27.678c-.038.168-.308.857-.308.857l0,0a.3.3,0,0,1,.155.278.268.268,0,0,1-.23.294.268.268,0,0,1-.229-.294c0-.012,0-.024,0-.036l-.005.005-.128-.029c0,.006,0,.013,0,.019a.3.3,0,0,1-.314.277.3.3,0,0,1-.313-.277.3.3,0,0,1,.307-.276c0-.058-.042-.811-.321-.964,0,0-.113-.121.039-.485a2.012,2.012,0,0,1,.8-.043c.246.089.6.454.548.671m-1.87-.143c-.279.154-.317.907-.319.964a.3.3,0,0,1,.307.276.3.3,0,0,1-.314.277.3.3,0,0,1-.314-.277.134.134,0,0,1,0-.019l-.129.029-.006-.005c0,.012,0,.024,0,.036a.269.269,0,0,1-.23.294.268.268,0,0,1-.23-.294.3.3,0,0,1,.155-.278l0,0s-.269-.689-.308-.857c-.05-.217.3-.582.547-.671a2.015,2.015,0,0,1,.8.043c.153.364.042.483.038.485m2.822-.108c.014-.693-.228-.978-1.163-.956a1.345,1.345,0,0,0-1.114-.1c-.045.016-.065-.011-.056-.045a.521.521,0,0,0,.028-.125.277.277,0,0,0-.051-.158V-29.8h.381v-.439h-.381V-30.6h-.436v.358h-.387v.439h.387v.464a.277.277,0,0,0-.066.179.477.477,0,0,0,.028.125c.009.034-.01.06-.056.045a1.347,1.347,0,0,0-1.115.1c-.937-.022-1.177.265-1.162.963l-.2-.068v.439l.2.068a1.779,1.779,0,0,1,.484.8c.032.139-.13.484.213.6l.115.512c-.169.021-.123.22.013.2.205-.03.446-.048.658-.064l.242-.012c.206-.008.415-.012.621-.014h.473c.208,0,.415.006.623.014l.242.012c.211.016.453.035.657.064.136.023.182-.175.014-.2l.115-.512c.344-.121.182-.466.214-.6a1.776,1.776,0,0,1,.495-.811l.17-.057v-.439Z" transform="translate(57.95 30.6)"/>
      </g>
    </g>
  </g>
</svg>
