<svg xmlns="http://www.w3.org/2000/svg" width="94.313" height="89.997" viewBox="0 0 94.313 89.997">
  <defs>
    <style>
      .cls-1, .cls-2 {
        fill: #1a1a18;
      }

      .cls-2, .cls-3, .cls-4, .cls-5 {
        fill-rule: evenodd;
      }

      .cls-3 {
        fill: #fbe304;
      }

      .cls-4 {
        fill: #006cb2;
      }

      .cls-5 {
        fill: #e2231a;
      }
    </style>
  </defs>
  <g id="Instrumente_structurale" transform="translate(-106.138 -114.793)">
    <g id="Group_2982" data-name="Group 2982" transform="translate(106.138 114.793)">
      <g id="Layer-1">
        <g id="Group_2940" data-name="Group 2940" transform="translate(0 74.357)">
          <rect id="Rectangle_2059" data-name="Rectangle 2059" class="cls-1" width="1.219" height="6.045" transform="translate(0 0)"/>
        </g>
        <g id="Group_2941" data-name="Group 2941" transform="translate(2.366 75.924)">
          <path id="Path_1560" data-name="Path 1560" class="cls-2" d="M-12.014,4.477h-1.16V2.242a3.564,3.564,0,0,0-.073-.916A.655.655,0,0,0-13.49,1a.684.684,0,0,0-.4-.116.947.947,0,0,0-.542.165.846.846,0,0,0-.327.438,3.764,3.764,0,0,0-.088,1.006V4.477H-16V.1h1.075V.744A1.747,1.747,0,0,1-13.487,0a1.747,1.747,0,0,1,.7.138,1.192,1.192,0,0,1,.479.351,1.274,1.274,0,0,1,.225.488,3.4,3.4,0,0,1,.066.778Z" transform="translate(16.004)"/>
        </g>
        <g id="Group_2942" data-name="Group 2942" transform="translate(7.122 75.924)">
          <path id="Path_1561" data-name="Path 1561" class="cls-2" d="M0-2.158l1.162-.179a.842.842,0,0,0,.3.513,1.009,1.009,0,0,0,.632.175,1.159,1.159,0,0,0,.677-.165.371.371,0,0,0,.153-.309.309.309,0,0,0-.083-.22.929.929,0,0,0-.387-.151A6.224,6.224,0,0,1,.679-3.058,1.124,1.124,0,0,1,.16-4.043,1.215,1.215,0,0,1,.61-5,2.1,2.1,0,0,1,2-5.388,2.449,2.449,0,0,1,3.339-5.1a1.5,1.5,0,0,1,.6.868l-1.094.2a.666.666,0,0,0-.265-.389.968.968,0,0,0-.557-.136,1.251,1.251,0,0,0-.658.128.278.278,0,0,0-.131.234.259.259,0,0,0,.116.212,4.554,4.554,0,0,0,1.082.327,3.167,3.167,0,0,1,1.29.514,1.065,1.065,0,0,1,.365.861,1.317,1.317,0,0,1-.506,1.034A2.214,2.214,0,0,1,2.1-.815a2.438,2.438,0,0,1-1.416-.36A1.659,1.659,0,0,1,0-2.158" transform="translate(0 5.388)"/>
        </g>
        <g id="Group_2943" data-name="Group 2943" transform="translate(11.746 74.477)">
          <path id="Path_1562" data-name="Path 1562" class="cls-2" d="M-7.482-16.395v.924h-.791v1.765a4.114,4.114,0,0,0,.023.623.257.257,0,0,0,.1.144.324.324,0,0,0,.2.06,1.49,1.49,0,0,0,.466-.111l.1.9a2.361,2.361,0,0,1-.918.169,1.439,1.439,0,0,1-.563-.1.824.824,0,0,1-.368-.272,1.106,1.106,0,0,1-.165-.452,6.043,6.043,0,0,1-.034-.815v-1.907h-.534v-.924h.534v-.871l1.16-.676v1.547Z" transform="translate(9.967 17.942)"/>
        </g>
        <g id="Group_2944" data-name="Group 2944" transform="translate(14.988 75.924)">
          <path id="Path_1563" data-name="Path 1563" class="cls-2" d="M-3.484,4.477H-4.642V.1h1.076V.722A1.9,1.9,0,0,1-3.071.139.934.934,0,0,1-2.569,0a1.466,1.466,0,0,1,.761.219l-.357,1.01a1,1,0,0,0-.543-.19.643.643,0,0,0-.414.135.9.9,0,0,0-.264.484,6.837,6.837,0,0,0-.1,1.465Z" transform="translate(4.642)"/>
        </g>
        <g id="Group_2945" data-name="Group 2945" transform="translate(18.296 76.023)">
          <path id="Path_1564" data-name="Path 1564" class="cls-2" d="M-8.755,3.994V3.34a1.717,1.717,0,0,1-.629.552,1.8,1.8,0,0,1-.825.2A1.634,1.634,0,0,1-11,3.9a1.15,1.15,0,0,1-.507-.545,2.4,2.4,0,0,1-.158-.969V-.383H-10.5v2.01a5.394,5.394,0,0,0,.066,1.135.628.628,0,0,0,.23.328.733.733,0,0,0,.431.121.911.911,0,0,0,.531-.162.832.832,0,0,0,.322-.406,4.654,4.654,0,0,0,.086-1.18V-.383H-7.68V3.994Z" transform="translate(11.663 0.383)"/>
        </g>
        <g id="Group_2946" data-name="Group 2946" transform="translate(23.392 75.923)">
          <path id="Path_1565" data-name="Path 1565" class="cls-2" d="M0-17.458H1.066v.6a1.724,1.724,0,0,1,1.364-.7,1.494,1.494,0,0,1,.73.172,1.336,1.336,0,0,1,.509.524,1.984,1.984,0,0,1,.621-.524A1.55,1.55,0,0,1,5-17.558a1.572,1.572,0,0,1,.814.2,1.181,1.181,0,0,1,.5.573,2.464,2.464,0,0,1,.122.908v2.8H5.279v-2.5a1.892,1.892,0,0,0-.117-.841.555.555,0,0,0-.5-.245.8.8,0,0,0-.459.148.819.819,0,0,0-.305.436,3.093,3.093,0,0,0-.1.9v2.1H2.646v-2.4a3.328,3.328,0,0,0-.062-.826.515.515,0,0,0-.192-.275.6.6,0,0,0-.351-.089.839.839,0,0,0-.482.144.779.779,0,0,0-.309.414,3.084,3.084,0,0,0-.092.9v2.128H0Z" transform="translate(0 17.558)"/>
        </g>
        <g id="Group_2947" data-name="Group 2947" transform="translate(30.647 75.924)">
          <path id="Path_1566" data-name="Path 1566" class="cls-2" d="M-8.845-8.772A1.127,1.127,0,0,0-9.1-9.536a.805.805,0,0,0-.6-.261.792.792,0,0,0-.623.277,1.051,1.051,0,0,0-.243.748ZM-8.912-7.6l1.154.192a1.882,1.882,0,0,1-.7.967,2.071,2.071,0,0,1-1.2.332,1.955,1.955,0,0,1-1.689-.747,2.5,2.5,0,0,1-.432-1.506,2.406,2.406,0,0,1,.569-1.706,1.863,1.863,0,0,1,1.438-.616,1.95,1.95,0,0,1,1.544.646,2.857,2.857,0,0,1,.538,1.976h-2.9a1.169,1.169,0,0,0,.279.8.881.881,0,0,0,.667.287.707.707,0,0,0,.458-.148.919.919,0,0,0,.28-.479" transform="translate(11.783 10.683)"/>
        </g>
        <g id="Group_2948" data-name="Group 2948" transform="translate(35.673 75.924)">
          <path id="Path_1567" data-name="Path 1567" class="cls-2" d="M-12,4.477h-1.156V2.242a3.467,3.467,0,0,0-.076-.916A.64.64,0,0,0-13.478,1a.69.69,0,0,0-.4-.116.944.944,0,0,0-.542.165.834.834,0,0,0-.326.438,3.752,3.752,0,0,0-.089,1.006V4.477h-1.156V.1h1.072V.744A1.758,1.758,0,0,1-13.475,0a1.733,1.733,0,0,1,.7.138,1.2,1.2,0,0,1,.48.351,1.321,1.321,0,0,1,.225.488A3.423,3.423,0,0,1-12,1.756Z" transform="translate(15.992)"/>
        </g>
        <g id="Group_2949" data-name="Group 2949" transform="translate(40.36 74.477)">
          <path id="Path_1568" data-name="Path 1568" class="cls-2" d="M-7.476-16.395v.924h-.791v1.765a4.448,4.448,0,0,0,.023.623.268.268,0,0,0,.1.144.329.329,0,0,0,.2.06,1.514,1.514,0,0,0,.467-.111l.1.9a2.361,2.361,0,0,1-.918.169,1.455,1.455,0,0,1-.564-.1.824.824,0,0,1-.368-.272,1.063,1.063,0,0,1-.163-.452,5.755,5.755,0,0,1-.036-.815v-1.907h-.531v-.924h.531v-.871l1.161-.676v1.547Z" transform="translate(9.958 17.942)"/>
        </g>
        <g id="Group_2950" data-name="Group 2950" transform="translate(43.309 75.924)">
          <path id="Path_1569" data-name="Path 1569" class="cls-2" d="M-8.849-8.772a1.122,1.122,0,0,0-.259-.765.8.8,0,0,0-.6-.261.8.8,0,0,0-.626.277,1.061,1.061,0,0,0-.243.748ZM-8.915-7.6l1.156.192a1.9,1.9,0,0,1-.7.967,2.071,2.071,0,0,1-1.2.332,1.952,1.952,0,0,1-1.689-.747,2.5,2.5,0,0,1-.433-1.506,2.416,2.416,0,0,1,.569-1.706,1.868,1.868,0,0,1,1.439-.616,1.941,1.941,0,0,1,1.542.646A2.846,2.846,0,0,1-7.7-8.061h-2.9a1.159,1.159,0,0,0,.278.8.887.887,0,0,0,.669.287.708.708,0,0,0,.457-.148A.939.939,0,0,0-8.915-7.6" transform="translate(11.788 10.683)"/>
        </g>
        <g id="Group_2951" data-name="Group 2951" transform="translate(50.388 74.254)">
          <path id="Path_1570" data-name="Path 1570" class="cls-2" d="M0-4.131,1.186-4.25a1.432,1.432,0,0,0,.436.88,1.309,1.309,0,0,0,.882.28,1.36,1.36,0,0,0,.888-.25.742.742,0,0,0,.3-.582.543.543,0,0,0-.127-.365.95.95,0,0,0-.44-.262c-.14-.052-.467-.138-.975-.264a3.322,3.322,0,0,1-1.375-.6A1.571,1.571,0,0,1,.218-6.626,1.561,1.561,0,0,1,.479-7.49,1.624,1.624,0,0,1,1.233-8.1a3.018,3.018,0,0,1,1.189-.212,2.551,2.551,0,0,1,1.713.5,1.766,1.766,0,0,1,.6,1.333l-1.221.053a1.028,1.028,0,0,0-.337-.67,1.214,1.214,0,0,0-.772-.2,1.409,1.409,0,0,0-.833.218.442.442,0,0,0-.193.374.463.463,0,0,0,.181.369,3.175,3.175,0,0,0,1.121.4A5.889,5.889,0,0,1,4-5.5a1.722,1.722,0,0,1,.67.614,1.815,1.815,0,0,1,.239.962,1.768,1.768,0,0,1-.288.972,1.731,1.731,0,0,1-.818.673,3.42,3.42,0,0,1-1.316.222A2.627,2.627,0,0,1,.73-2.588,2.291,2.291,0,0,1,0-4.131" transform="translate(0 8.313)"/>
        </g>
        <g id="Group_2952" data-name="Group 2952" transform="translate(55.841 74.477)">
          <path id="Path_1571" data-name="Path 1571" class="cls-2" d="M-7.485-16.395v.924h-.793v1.765a4.535,4.535,0,0,0,.022.623.273.273,0,0,0,.1.144.317.317,0,0,0,.2.06,1.527,1.527,0,0,0,.467-.111l.1.9a2.355,2.355,0,0,1-.917.169,1.444,1.444,0,0,1-.564-.1.818.818,0,0,1-.368-.272,1.063,1.063,0,0,1-.164-.452,6.1,6.1,0,0,1-.036-.815v-1.907h-.532v-.924h.532v-.871l1.161-.676v1.547Z" transform="translate(9.971 17.942)"/>
        </g>
        <g id="Group_2953" data-name="Group 2953" transform="translate(59.079 75.924)">
          <path id="Path_1572" data-name="Path 1572" class="cls-2" d="M-3.494,4.477h-1.16V.1h1.079V.722A1.886,1.886,0,0,1-3.08.139.927.927,0,0,1-2.581,0a1.471,1.471,0,0,1,.764.219l-.356,1.01a1.017,1.017,0,0,0-.546-.19.635.635,0,0,0-.411.135.888.888,0,0,0-.265.484,6.563,6.563,0,0,0-.1,1.465Z" transform="translate(4.654)"/>
        </g>
        <g id="Group_2954" data-name="Group 2954" transform="translate(62.39 76.023)">
          <path id="Path_1573" data-name="Path 1573" class="cls-2" d="M-8.749,3.994V3.34a1.689,1.689,0,0,1-.627.552,1.807,1.807,0,0,1-.824.2A1.644,1.644,0,0,1-10.99,3.9a1.162,1.162,0,0,1-.508-.545,2.457,2.457,0,0,1-.156-.969V-.383H-10.5v2.01a5.7,5.7,0,0,0,.064,1.135.64.64,0,0,0,.233.328.721.721,0,0,0,.428.121.918.918,0,0,0,.534-.162.857.857,0,0,0,.322-.406,4.706,4.706,0,0,0,.086-1.18V-.383h1.157V3.994Z" transform="translate(11.654 0.383)"/>
        </g>
        <g id="Group_2955" data-name="Group 2955" transform="translate(67.317 75.925)">
          <path id="Path_1574" data-name="Path 1574" class="cls-2" d="M-12.267-11.367l-1.142.207a.833.833,0,0,0-.264-.514.79.79,0,0,0-.53-.173.862.862,0,0,0-.691.3,1.545,1.545,0,0,0-.257,1,1.774,1.774,0,0,0,.261,1.1.858.858,0,0,0,.7.323.767.767,0,0,0,.538-.188,1.109,1.109,0,0,0,.3-.646l1.14.2a2.04,2.04,0,0,1-.684,1.183,2.1,2.1,0,0,1-1.346.4,2,2,0,0,1-1.53-.6,2.347,2.347,0,0,1-.571-1.678,2.363,2.363,0,0,1,.571-1.689,2.036,2.036,0,0,1,1.55-.6,2.111,2.111,0,0,1,1.274.343,1.93,1.93,0,0,1,.679,1.048" transform="translate(16.342 12.758)"/>
        </g>
        <g id="Group_2956" data-name="Group 2956" transform="translate(71.789 74.477)">
          <path id="Path_1575" data-name="Path 1575" class="cls-2" d="M-7.479-16.395v.924h-.79v1.765a4.355,4.355,0,0,0,.022.623.264.264,0,0,0,.1.144.325.325,0,0,0,.2.06,1.516,1.516,0,0,0,.466-.111l.1.9a2.357,2.357,0,0,1-.918.169,1.464,1.464,0,0,1-.565-.1.842.842,0,0,1-.368-.272,1.107,1.107,0,0,1-.162-.452,5.6,5.6,0,0,1-.036-.815v-1.907h-.532v-.924h.532v-.871l1.162-.676v1.547Z" transform="translate(9.963 17.942)"/>
        </g>
        <g id="Group_2957" data-name="Group 2957" transform="translate(75.052 76.023)">
          <path id="Path_1576" data-name="Path 1576" class="cls-2" d="M-8.755,3.994V3.34a1.729,1.729,0,0,1-.63.552,1.793,1.793,0,0,1-.823.2A1.645,1.645,0,0,1-11,3.9a1.155,1.155,0,0,1-.507-.545,2.437,2.437,0,0,1-.157-.969V-.383H-10.5v2.01a5.619,5.619,0,0,0,.064,1.135.64.64,0,0,0,.233.328.726.726,0,0,0,.43.121.921.921,0,0,0,.532-.162.828.828,0,0,0,.32-.406,4.616,4.616,0,0,0,.088-1.18V-.383h1.158V3.994Z" transform="translate(11.663 0.383)"/>
        </g>
        <g id="Group_2958" data-name="Group 2958" transform="translate(80.184 75.924)">
          <path id="Path_1577" data-name="Path 1577" class="cls-2" d="M-3.491,4.477H-4.65V.1h1.077V.722A1.915,1.915,0,0,1-3.078.139.941.941,0,0,1-2.575,0a1.473,1.473,0,0,1,.764.219l-.36,1.01a1,1,0,0,0-.542-.19.641.641,0,0,0-.414.135.9.9,0,0,0-.263.484,6.607,6.607,0,0,0-.1,1.465Z" transform="translate(4.65)"/>
        </g>
        <g id="Group_2959" data-name="Group 2959" transform="translate(83.214 75.924)">
          <path id="Path_1578" data-name="Path 1578" class="cls-2" d="M-8.195-6.447A7.116,7.116,0,0,1-8.9-6.27a2.281,2.281,0,0,0-.633.2.492.492,0,0,0-.224.408.569.569,0,0,0,.182.421.637.637,0,0,0,.46.177,1,1,0,0,0,.6-.207.706.706,0,0,0,.274-.383,2.253,2.253,0,0,0,.046-.563Zm-1.549-.939L-10.8-7.578a1.639,1.639,0,0,1,.608-.937A2.257,2.257,0,0,1-8.9-8.821a2.739,2.739,0,0,1,1.154.185,1.147,1.147,0,0,1,.535.466,2.43,2.43,0,0,1,.154,1.035l-.011,1.353a4.6,4.6,0,0,0,.054.851,2.684,2.684,0,0,0,.209.588H-7.953c-.029-.079-.068-.193-.109-.344-.021-.066-.032-.113-.042-.135a2.169,2.169,0,0,1-.636.433,1.835,1.835,0,0,1-.72.141,1.5,1.5,0,0,1-1.066-.363,1.22,1.22,0,0,1-.392-.931,1.256,1.256,0,0,1,.178-.661,1.139,1.139,0,0,1,.5-.443,3.762,3.762,0,0,1,.92-.272A6.381,6.381,0,0,0-8.195-7.2v-.117a.6.6,0,0,0-.166-.475.976.976,0,0,0-.621-.144.84.84,0,0,0-.483.124.841.841,0,0,0-.278.427" transform="translate(10.917 8.821)"/>
        </g>
        <g id="Group_2960" data-name="Group 2960" transform="translate(88.215 74.357)">
          <rect id="Rectangle_2060" data-name="Rectangle 2060" class="cls-1" width="1.158" height="6.045" transform="translate(0 0)"/>
        </g>
        <g id="Group_2961" data-name="Group 2961" transform="translate(90.221 75.924)">
          <path id="Path_1579" data-name="Path 1579" class="cls-2" d="M-8.852-8.772a1.117,1.117,0,0,0-.26-.765.792.792,0,0,0-.6-.261.8.8,0,0,0-.626.277,1.061,1.061,0,0,0-.242.748ZM-8.917-7.6l1.155.192a1.892,1.892,0,0,1-.7.967,2.055,2.055,0,0,1-1.2.332,1.953,1.953,0,0,1-1.689-.747,2.491,2.491,0,0,1-.435-1.506,2.421,2.421,0,0,1,.57-1.706,1.869,1.869,0,0,1,1.438-.616,1.941,1.941,0,0,1,1.543.646A2.74,2.74,0,0,1-7.7-8.185v.124h-2.9a1.17,1.17,0,0,0,.28.8.879.879,0,0,0,.667.287A.713.713,0,0,0-9.2-7.121a.947.947,0,0,0,.28-.479" transform="translate(11.792 10.683)"/>
        </g>
        <g id="Group_2962" data-name="Group 2962" transform="translate(28.213 83.78)">
          <path id="Path_1580" data-name="Path 1580" class="cls-2" d="M-12.314.675V1.76H-16.4A2.807,2.807,0,0,1-16,.594a7.592,7.592,0,0,1,1.31-1.457,8.179,8.179,0,0,0,.967-1,1.266,1.266,0,0,0,.24-.715.823.823,0,0,0-.208-.6.776.776,0,0,0-.58-.21.774.774,0,0,0-.582.22,1.128,1.128,0,0,0-.249.731l-1.161-.116a1.9,1.9,0,0,1,.651-1.384,2.2,2.2,0,0,1,1.37-.42,1.983,1.983,0,0,1,1.416.486,1.6,1.6,0,0,1,.515,1.206,2.167,2.167,0,0,1-.148.786,3.231,3.231,0,0,1-.466.777,7.8,7.8,0,0,1-.766.778c-.368.338-.6.56-.7.672a1.91,1.91,0,0,0-.238.323Z" transform="translate(16.404 4.354)"/>
        </g>
        <g id="Group_2963" data-name="Group 2963" transform="translate(32.875 83.78)">
          <path id="Path_1581" data-name="Path 1581" class="cls-2" d="M-5.952-20.082a.586.586,0,0,0-.378.134.913.913,0,0,0-.258.484,6.675,6.675,0,0,0-.122,1.523A6.627,6.627,0,0,0-6.6-16.467a1.058,1.058,0,0,0,.271.534.588.588,0,0,0,.377.133.589.589,0,0,0,.378-.135.9.9,0,0,0,.257-.484A6.676,6.676,0,0,0-5.2-17.941,6.651,6.651,0,0,0-5.3-19.412a1.066,1.066,0,0,0-.272-.536.581.581,0,0,0-.376-.134m0-.968a1.665,1.665,0,0,1,1.383.632,4.032,4.032,0,0,1,.6,2.478,4.04,4.04,0,0,1-.6,2.486,1.66,1.66,0,0,1-1.378.621,1.749,1.749,0,0,1-1.435-.683,4.056,4.056,0,0,1-.542-2.435,4.03,4.03,0,0,1,.6-2.477,1.661,1.661,0,0,1,1.379-.622" transform="translate(7.929 21.05)"/>
        </g>
        <g id="Group_2964" data-name="Group 2964" transform="translate(37.184 83.78)">
          <path id="Path_1582" data-name="Path 1582" class="cls-2" d="M-8.051,6.115H-9.217v-4.4a4.014,4.014,0,0,1-1.508.886V1.541A3.335,3.335,0,0,0-9.731.974,2.17,2.17,0,0,0-9,0h.947Z" transform="translate(10.725)"/>
        </g>
        <g id="Group_2965" data-name="Group 2965" transform="translate(40.523 83.779)">
          <path id="Path_1583" data-name="Path 1583" class="cls-2" d="M-7.5-5.17V-7.252L-8.9-5.17Zm0,2.252V-4.145H-9.992V-5.167l2.641-3.867h.981V-5.17h.756v1.025H-6.37v1.227Z" transform="translate(9.992 9.033)"/>
        </g>
        <g id="Group_2966" data-name="Group 2966" transform="translate(45.802 87.104)">
          <rect id="Rectangle_2061" data-name="Rectangle 2061" class="cls-1" width="2.29" height="1.167"/>
        </g>
        <g id="Group_2967" data-name="Group 2967" transform="translate(48.453 83.78)">
          <path id="Path_1584" data-name="Path 1584" class="cls-2" d="M-12.311.675V1.76H-16.4A2.8,2.8,0,0,1-16,.594,7.745,7.745,0,0,1-14.691-.864a7.851,7.851,0,0,0,.967-1,1.27,1.27,0,0,0,.242-.715.815.815,0,0,0-.209-.6.776.776,0,0,0-.58-.21.77.77,0,0,0-.581.22,1.105,1.105,0,0,0-.25.731l-1.164-.116a1.915,1.915,0,0,1,.652-1.384,2.2,2.2,0,0,1,1.371-.42,1.984,1.984,0,0,1,1.417.486,1.6,1.6,0,0,1,.513,1.206,2.063,2.063,0,0,1-.148.786,3.2,3.2,0,0,1-.466.777,7.8,7.8,0,0,1-.763.778c-.372.338-.6.56-.7.672a1.92,1.92,0,0,0-.239.323Z" transform="translate(16.4 4.354)"/>
        </g>
        <g id="Group_2968" data-name="Group 2968" transform="translate(53.116 83.78)">
          <path id="Path_1585" data-name="Path 1585" class="cls-2" d="M-5.946-20.082a.59.59,0,0,0-.377.134.928.928,0,0,0-.258.484A6.691,6.691,0,0,0-6.7-17.941a6.518,6.518,0,0,0,.108,1.474,1.049,1.049,0,0,0,.272.534.585.585,0,0,0,.375.133.6.6,0,0,0,.38-.135.942.942,0,0,0,.257-.484,6.646,6.646,0,0,0,.119-1.522A6.651,6.651,0,0,0-5.3-19.412a1.05,1.05,0,0,0-.273-.536.578.578,0,0,0-.375-.134m0-.968a1.665,1.665,0,0,1,1.384.632,4.047,4.047,0,0,1,.594,2.478,4.048,4.048,0,0,1-.6,2.486,1.664,1.664,0,0,1-1.38.621,1.741,1.741,0,0,1-1.433-.683,4.034,4.034,0,0,1-.542-2.435,4.038,4.038,0,0,1,.6-2.477,1.661,1.661,0,0,1,1.378-.622" transform="translate(7.921 21.05)"/>
        </g>
        <g id="Group_2969" data-name="Group 2969" transform="translate(57.484 83.78)">
          <path id="Path_1586" data-name="Path 1586" class="cls-2" d="M-12.317.675V1.76h-4.091a2.852,2.852,0,0,1,.4-1.167A7.62,7.62,0,0,1-14.7-.864a8.179,8.179,0,0,0,.967-1,1.268,1.268,0,0,0,.241-.715.811.811,0,0,0-.21-.6.777.777,0,0,0-.581-.21.768.768,0,0,0-.579.22,1.111,1.111,0,0,0-.25.731l-1.162-.116a1.91,1.91,0,0,1,.649-1.384,2.217,2.217,0,0,1,1.372-.42,1.977,1.977,0,0,1,1.416.486,1.6,1.6,0,0,1,.515,1.206,2.1,2.1,0,0,1-.149.786,3.225,3.225,0,0,1-.465.777A7.646,7.646,0,0,1-13.7-.32c-.368.338-.6.56-.7.672a2.031,2.031,0,0,0-.238.323Z" transform="translate(16.408 4.354)"/>
        </g>
        <g id="Group_2970" data-name="Group 2970" transform="translate(62.148 83.78)">
          <path id="Path_1587" data-name="Path 1587" class="cls-2" d="M-5.952-20.082a.6.6,0,0,0-.379.134.927.927,0,0,0-.257.484,6.66,6.66,0,0,0-.123,1.523A6.385,6.385,0,0,0-6.6-16.467a1.026,1.026,0,0,0,.269.534.59.59,0,0,0,.377.133.6.6,0,0,0,.378-.135.935.935,0,0,0,.257-.484A6.586,6.586,0,0,0-5.2-17.941a6.6,6.6,0,0,0-.107-1.471,1.066,1.066,0,0,0-.272-.536.582.582,0,0,0-.375-.134m0-.968a1.665,1.665,0,0,1,1.383.632,4.034,4.034,0,0,1,.592,2.478,4.05,4.05,0,0,1-.6,2.486,1.669,1.669,0,0,1-1.379.621,1.745,1.745,0,0,1-1.434-.683,4.048,4.048,0,0,1-.543-2.435,4.038,4.038,0,0,1,.6-2.477,1.662,1.662,0,0,1,1.38-.622" transform="translate(7.929 21.05)"/>
        </g>
        <g id="Group_2971" data-name="Group 2971" transform="translate(13.763 17.941)">
          <path id="Path_1588" data-name="Path 1588" class="cls-3" d="M-6.237,8.182l.664-3.117L-8.308,3.414l3.157-.3L-4.417,0l1.229,2.934,3.23-.31L-2.4,4.77l1.3,2.935L-3.849,6.056Z" transform="translate(8.308)"/>
        </g>
        <g id="Group_2972" data-name="Group 2972" transform="translate(23.927 6.091)">
          <path id="Path_1589" data-name="Path 1589" class="cls-3" d="M-6.24,8.2l.662-3.138L-8.313,3.429l3.155-.311L-4.422,0l1.23,2.934L.035,2.641l-2.44,2.129L-1.12,7.7-3.853,6.053Z" transform="translate(8.313)"/>
        </g>
        <g id="Group_2973" data-name="Group 2973" transform="translate(59.628 54.1)">
          <path id="Path_1590" data-name="Path 1590" class="cls-3" d="M-6.237,8.182-5.5,5.064-8.308,3.431l3.23-.313L-4.419,0l1.3,2.934,3.157-.31L-2.346,4.752l1.3,2.934L-3.85,6.055Z" transform="translate(8.308)"/>
        </g>
        <g id="Group_2974" data-name="Group 2974" transform="translate(69.46 42.341)">
          <path id="Path_1591" data-name="Path 1591" class="cls-3" d="M-6.246,8.2l.659-3.117L-8.321,3.432l3.157-.3L-4.449,0-3.2,2.952.026,2.64-2.431,4.788l1.3,2.933L-3.861,6.073Z" transform="translate(8.321)"/>
        </g>
        <g id="Group_2975" data-name="Group 2975" transform="translate(72.671 26.951)">
          <path id="Path_1592" data-name="Path 1592" class="cls-3" d="M-6.3,8.2l.714-3.137-2.8-1.631,3.247-.314L-4.5,0l1.3,2.933,3.172-.294L-2.407,4.767l1.3,2.935-2.8-1.651Z" transform="translate(8.388)"/>
        </g>
        <g id="Group_2976" data-name="Group 2976" transform="translate(66.745 12.419)">
          <path id="Path_1593" data-name="Path 1593" class="cls-3" d="M-6.246,8.2l.66-3.119L-8.321,3.431l3.23-.313L-4.43,0l1.3,2.935L.027,2.643-2.355,4.77l1.243,2.935-2.75-1.632Z" transform="translate(8.321)"/>
        </g>
        <g id="Group_2977" data-name="Group 2977" transform="translate(54.547 2.898)">
          <path id="Path_1594" data-name="Path 1594" class="cls-3" d="M-6.293,8.2l.717-3.136L-8.383,3.432l3.246-.3L-4.495,0l1.3,2.934,3.176-.291L-2.4,4.77l1.23,2.952-2.734-1.65Z" transform="translate(8.383)"/>
        </g>
        <g id="Group_2978" data-name="Group 2978" transform="translate(38.697)">
          <path id="Path_1595" data-name="Path 1595" class="cls-3" d="M-6.3,8.18l.66-3.115L-8.388,3.412l3.174-.294L-4.482,0-3.2,2.933l3.176-.31L-2.407,4.75l1.23,2.956L-3.913,6.054Z" transform="translate(8.388)"/>
        </g>
        <g id="Group_2979" data-name="Group 2979" transform="translate(15.603 10.879)">
          <path id="Path_1596" data-name="Path 1596" class="cls-4" d="M-32.245,32.855c4.974.348,11.284-1.944,15.687-3.854a11.706,11.706,0,0,1,1.283-.585c-.7-1.286-1.283-2.459-1.981-3.743.111.129-2.22-4.55-3.523-6.9a5.74,5.74,0,0,0-.568-1.175c.22-.108.347-.108.568-.218,0-.129.237-.239.476-.349h.109l1.415-.716A30.111,30.111,0,0,0-6.964,3.87a24.556,24.556,0,0,0,2.09-5.029L-5.092-1.4a16.806,16.806,0,0,1-2.46,4.439A34.886,34.886,0,0,1-19.715,13.335l-.238.109s-.826.478-2.221,1.177c-.346.235-.824.348-1.28.585-4.388,1.6-8.3,2.991-13.01,2.55a11.942,11.942,0,0,1-5.615-2.33,32.43,32.43,0,0,0-.458,12.623s2.46,4.916,10.293,4.806" transform="translate(42.954 1.396)"/>
        </g>
        <g id="Group_2980" data-name="Group 2980" transform="translate(16.865 21.629)">
          <path id="Path_1597" data-name="Path 1597" class="cls-3" d="M-146.1-150.029a26.9,26.9,0,0,1-5.506,8.9,46.573,46.573,0,0,1-13.446,10.642c-.64.422-1.411.7-2.111,1.155a9.536,9.536,0,0,1-1.281.589c-4.918,2.035-9.762,3.96-15.191,3.96-9.359-.238-10.989-3.631-10.989-3.631a5.305,5.305,0,0,1,.459,1.411c.695,1.873,1.522,3.745,2.348,5.725.7,1.065,1.392,2.22,2.22,3.284,0,0,4.9,5.375,16.6,4.09a33.452,33.452,0,0,0,11.687-3.853,5.714,5.714,0,0,1,1.173-.22c-1.982-2.935-3.851-6.2-5.962-9.484h.109a12.867,12.867,0,0,0,1.414-.567c.936-.59,1.871-1.066,2.677-1.651a39.469,39.469,0,0,0,10.881-10.164,30.492,30.492,0,0,0,4.916-9.834Z" transform="translate(194.621 150.029)"/>
        </g>
        <g id="Group_2981" data-name="Group 2981" transform="translate(25.744 40.34)">
          <path id="Path_1598" data-name="Path 1598" class="cls-5" d="M-120.415-90.843c-2.569,3.523-6.789,7.028-11.69,9.943-.475.24-1.061.587-1.648.935-.349.129-.7.24-.935.35-7.651,3.633-17.648,6.182-25.721,2.4,8.126,7.667,22.418,9.978,32.616,5.429,0-.109-3.5-4.677-4.787-6.42.111-.128.347-.128.475-.239,1.048-.458,1.856-1.045,2.572-1.4a34.215,34.215,0,0,0,9.577-9.833,16.8,16.8,0,0,0,2.107-4.916l-.238-.111a12.533,12.533,0,0,1-2.328,3.853" transform="translate(160.408 94.696)"/>
        </g>
      </g>
    </g>
  </g>
</svg>
