<svg xmlns="http://www.w3.org/2000/svg" width="217.454" height="89.995" viewBox="0 0 217.454 89.995">
  <defs>
    <style>
      .cls-1 {
        fill: #231f20;
      }

      .cls-2, .cls-3 {
        fill: #213f99;
      }

      .cls-10, .cls-3, .cls-4, .cls-5, .cls-6, .cls-7, .cls-8, .cls-9 {
        fill-rule: evenodd;
      }

      .cls-4 {
        fill: #a72287;
      }

      .cls-5 {
        fill: #ed1c24;
      }

      .cls-6 {
        fill: #f36f21;
      }

      .cls-7 {
        fill: #fdb812;
      }

      .cls-8 {
        fill: #fd0;
      }

      .cls-9 {
        fill: #2fb44a;
      }

      .cls-10 {
        fill: #0b79bf;
      }
    </style>
  </defs>
  <g id="Regio" transform="translate(-2718 614)">
    <path id="Path_1495" data-name="Path 1495" class="cls-1" d="M-8.861-53.549v5.214h.647c.365,0,.584-.188.584-.709v-3.8c0-.521-.219-.709-.584-.709Zm-1.147-1.043h1.814c1.147,0,1.711.636,1.711,1.8V-49.1c0,1.168-.564,1.8-1.711,1.8h-1.814Z" transform="translate(2886.858 -492.749)"/>
    <rect id="Rectangle_2055" data-name="Rectangle 2055" class="cls-1" width="2.085" height="1.043" transform="translate(2881.052 -544.212)"/>
    <path id="Path_1496" data-name="Path 1496" class="cls-1" d="M-18.77-13.287h.021l.772-5.183h1.6v7.3h-1.085v-5.235h-.021l-.772,5.235h-1.084l-.834-5.162H-20.2v5.162h-1v-7.3h1.6Z" transform="translate(2905.11 -528.87)"/>
    <path id="Path_1497" data-name="Path 1497" class="cls-1" d="M-8.857-64.5v5.631c0,.522.229.709.595.709s.594-.188.594-.709V-64.5h1.085v5.559c0,1.168-.584,1.835-1.71,1.835S-10-57.778-10-58.945V-64.5Z" transform="translate(2899.513 -482.836)"/>
    <path id="Path_1498" data-name="Path 1498" class="cls-1" d="M-8.134-44.112h-.021v5.287H-9.188v-7.3h1.439l1.157,4.37h.021v-4.37h1.022v7.3H-6.726Z" transform="translate(2902.888 -501.215)"/>
    <path id="Path_1499" data-name="Path 1499" class="cls-1" d="M0-63.688H3.546v1.043h-1.2v6.257H1.2v-6.257H0Z" transform="translate(2897.829 -483.653)"/>
    <path id="Path_1500" data-name="Path 1500" class="cls-1" d="M-8.861-33.774h1.575v1.043H-8.861v2.138H-6.88v1.043h-3.128v-7.3H-6.88v1.043H-8.861Z" transform="translate(2911.883 -510.49)"/>
    <path id="Path_1501" data-name="Path 1501" class="cls-1" d="M-8.134-44.112h-.021v5.287H-9.188v-7.3h1.439l1.157,4.37h.021v-4.37h1.022v7.3H-6.726Z" transform="translate(2914.89 -501.215)"/>
    <rect id="Rectangle_2056" data-name="Rectangle 2056" class="cls-1" width="1.147" height="7.3" transform="translate(2910.165 -547.34)"/>
    <path id="Path_1502" data-name="Path 1502" class="cls-1" d="M-10.794-15.215h1.105l-.542-3.691h-.021ZM-8.177-12.9H-9.334l-.2-1.325H-10.94l-.2,1.325h-1.053l1.168-7.3h1.679Z" transform="translate(2924.035 -527.14)"/>
    <path id="Path_1506" data-name="Path 1506" class="cls-2" d="M-109.089,34.737V-6.511a.948.948,0,0,0-.012-.153.821.821,0,0,0-1.2-.532,12.371,12.371,0,0,1-5.726,1.341h-.239A12.371,12.371,0,0,1-122-7.2a.821.821,0,0,0-1.2.532.948.948,0,0,0-.012.153V34.737a.988.988,0,0,0,.988.988h12.148a.988.988,0,0,0,.988-.988" transform="translate(2991.889 -589.637)"/>
    <path id="Path_1523" data-name="Path 1523" class="cls-2" d="M-56.059,7.712h-.784a.5.5,0,0,1-.5-.5V6.1a3.042,3.042,0,0,1-2.948,1.676,2.864,2.864,0,0,1-3.026-3.18V-.042a.5.5,0,0,1,.5-.5h.784a.5.5,0,0,1,.5.5V4.1a1.815,1.815,0,0,0,1.924,2,2.331,2.331,0,0,0,2.265-2.575V-.042a.5.5,0,0,1,.5-.5h.784a.5.5,0,0,1,.5.5V7.212a.5.5,0,0,1-.5.5" transform="translate(2941.084 -531.856)"/>
    <path id="Path_1524" data-name="Path 1524" class="cls-2" d="M-43.38-17.283v-.76h-2.234c-1.163,0-1.706.31-1.706,1.1,0,.745.605,1.226,1.6,1.226,1.272,0,2.25-.668,2.343-1.567m-3.348-8.7h.209a.525.525,0,0,1,.482.365.946.946,0,0,0,.9.643.947.947,0,0,0,.9-.643.524.524,0,0,1,.482-.365h.208a.513.513,0,0,1,.492.653,2.089,2.089,0,0,1-2.087,1.55,2.089,2.089,0,0,1-2.087-1.55.513.513,0,0,1,.492-.653m3.363,10.6a3.345,3.345,0,0,1-2.73,1.086,2.613,2.613,0,0,1-2.9-2.56c0-1.5,1.132-2.467,3.118-2.482h2.5v-.248c0-1.039-.667-1.66-1.971-1.66a4.1,4.1,0,0,0-2.019.579.5.5,0,0,1-.679-.189l-.205-.349a.514.514,0,0,1,.2-.711,5.765,5.765,0,0,1,3.089-.773c2.125,0,3.32,1.086,3.336,2.9l.014,4.9a.51.51,0,0,1-.509.511h-.734a.509.509,0,0,1-.509-.509Z" transform="translate(2936.479 -509.762)"/>
    <path id="Path_1525" data-name="Path 1525" class="cls-2" d="M-8.459-24.139H-8.71a.469.469,0,0,1-.468-.44l-.251-4.138c0-.01,0-.019,0-.029v-2.186a.468.468,0,0,1,.469-.469h.755a.468.468,0,0,1,.468.469v2.186c0,.01,0,.019,0,.029l-.252,4.138a.469.469,0,0,1-.468.44m.86,2.559a.98.98,0,0,1-.977,1.04.98.98,0,0,1-.978-1.04.962.962,0,0,1,.978-1.008A.962.962,0,0,1-7.6-21.579" transform="translate(2906.38 -503.465)"/>
    <path id="Path_1552" data-name="Path 1552" class="cls-3" d="M-57.076,1.46a2.492,2.492,0,0,0,4.316,0l7.052-12.214a2.491,2.491,0,0,0-2.158-3.737h-14.1a2.491,2.491,0,0,0-2.158,3.737Z" transform="translate(2966.546 -586.735)"/>
    <path id="Path_1553" data-name="Path 1553" class="cls-4" d="M-91.046,17.566a11.639,11.639,0,0,1,4.386-6.387.67.67,0,0,0,.156-.906l-5.912-9.1a.676.676,0,0,0-.949-.194,23.859,23.859,0,0,0-9.469,13.432Z" transform="translate(2991.441 -596.13)"/>
    <path id="Path_1554" data-name="Path 1554" class="cls-5" d="M-97.273-117.483l-11.787-3.158a23.856,23.856,0,0,0-.806,6.168,23.72,23.72,0,0,0,2.592,10.819l10.873-5.54a11.574,11.574,0,0,1-1.265-5.279,11.645,11.645,0,0,1,.394-3.01" transform="translate(2997.668 -461.08)"/>
    <path id="Path_1555" data-name="Path 1555" class="cls-6" d="M2.986,15.947h12.2A23.917,23.917,0,0,0,9.07,0L0,8.166a11.663,11.663,0,0,1,2.986,7.781" transform="matrix(-0.891, 0.454, -0.454, -0.891, 2911.167, -557.422)"/>
    <path id="Path_1556" data-name="Path 1556" class="cls-7" d="M-33.781-113.146l-4.373,11.393a23.763,23.763,0,0,0,8.541,1.577,23.765,23.765,0,0,0,8.541-1.577l-4.373-11.393a11.6,11.6,0,0,1-4.168.769,11.6,11.6,0,0,1-4.168-.769" transform="translate(2941.241 -451.552)"/>
    <path id="Path_1557" data-name="Path 1557" class="cls-8" d="M2.987,15.946h12.2A23.91,23.91,0,0,0,9.068,0L0,8.165a11.669,11.669,0,0,1,2.987,7.781" transform="translate(2929.612 -573.201) rotate(68.999)"/>
    <path id="Path_1558" data-name="Path 1558" class="cls-9" d="M0-36.886l10.873,5.54a23.723,23.723,0,0,0,2.592-10.819,23.856,23.856,0,0,0-.806-6.168L.872-45.175a11.645,11.645,0,0,1,.393,3.01A11.578,11.578,0,0,1,0-36.886" transform="translate(2921.989 -533.389)"/>
    <path id="Path_1559" data-name="Path 1559" class="cls-10" d="M-35.937,17.566l11.787-3.158A23.859,23.859,0,0,0-33.619.976a.676.676,0,0,0-.949.194l-5.912,9.1a.67.67,0,0,0,.156.906,11.639,11.639,0,0,1,4.386,6.387" transform="translate(2958.798 -596.13)"/>
    <path id="Path_1503" data-name="Path 1503" class="cls-2" d="M-99.542-111.7a7.4,7.4,0,0,1,2.114,5.466,7.431,7.431,0,0,1-2.114,5.426,7.227,7.227,0,0,1-5.386,2.154,7.221,7.221,0,0,1-5.386-2.154,7.426,7.426,0,0,1-2.115-5.426,7.394,7.394,0,0,1,2.115-5.466,7.294,7.294,0,0,1,5.386-2.114,7.3,7.3,0,0,1,5.386,2.114" transform="translate(2980.667 -500.183)"/>
    <path id="Path_1504" data-name="Path 1504" class="cls-2" d="M-112.79-216.953a.933.933,0,0,0,.933.933h9.68q4.467,0,6.9-2.234a8.336,8.336,0,0,0,2.434-6.463,8,8,0,0,0-2.434-6.264q-2.435-2.194-6.9-2.195h-9.68a.933.933,0,0,0-.933.933Zm19.555,28.063a.933.933,0,0,1-.826-.5l-7.4-14.068a1.708,1.708,0,0,0-1.512-.913h-8.887a.933.933,0,0,0-.933.933v13.614a.933.933,0,0,1-.933.933h-12.737a.933.933,0,0,1-.933-.933v-54.07a.933.933,0,0,1,.933-.933h24.2q11.09,0,17.2,5.147t6.1,14.482A22.062,22.062,0,0,1-81.51-214.3a17.5,17.5,0,0,1-6.58,6.675.928.928,0,0,0-.309,1.3l10.2,16a.933.933,0,0,1-.787,1.435Z" transform="translate(2845.403 -365.023)"/>
    <path id="Path_1505" data-name="Path 1505" class="cls-2" d="M-229.548-207.273a.816.816,0,0,0,.811-.875,8,8,0,0,0-2.163-5.15,7.674,7.674,0,0,0-5.785-2.274,7.715,7.715,0,0,0-5.625,2.235,10.657,10.657,0,0,0-2.794,5.153.734.734,0,0,0,.711.911Zm8.982-12.049q5.665,6.224,5.665,17.076,0,.963-.027,1.662a.93.93,0,0,1-.932.892h-28.428a.516.516,0,0,0-.484.685,10.062,10.062,0,0,0,3.379,4.941,9.927,9.927,0,0,0,6.224,1.955,13.459,13.459,0,0,0,5.386-1.117,14.936,14.936,0,0,0,4.116-2.67.927.927,0,0,1,1.274.04l6.142,6.142a.939.939,0,0,1,0,1.321,21.908,21.908,0,0,1-7.463,5.022,27.957,27.957,0,0,1-10.732,1.955,25.8,25.8,0,0,1-12.129-2.713,18.85,18.85,0,0,1-7.94-7.66,23.239,23.239,0,0,1-2.753-11.491,23.815,23.815,0,0,1,2.793-11.689,19.279,19.279,0,0,1,7.9-7.82,24.5,24.5,0,0,1,11.809-2.753q10.533,0,16.2,6.224" transform="translate(3028.351 -372.013)"/>
    <path id="Path_1507" data-name="Path 1507" class="cls-2" d="M-218.8-247.58a7.9,7.9,0,0,1-6.3,2.793,8.012,8.012,0,0,1-6.344-2.793,10.648,10.648,0,0,1-2.433-7.261,10.808,10.808,0,0,1,2.433-7.3,7.968,7.968,0,0,1,6.344-2.833,7.9,7.9,0,0,1,6.3,2.793,10.888,10.888,0,0,1,2.394,7.341,10.762,10.762,0,0,1-2.394,7.261m15.6-27.609h-12.072a1.139,1.139,0,0,0-1.139,1.139v2.881a.455.455,0,0,1-.8.3,14.11,14.11,0,0,0-4.591-3.323,17.187,17.187,0,0,0-7.221-1.476,17.6,17.6,0,0,0-9.415,2.553,17.044,17.044,0,0,0-6.424,7.182,23.958,23.958,0,0,0-2.274,10.692,24.2,24.2,0,0,0,2.354,10.892,17.58,17.58,0,0,0,6.543,7.341,17.738,17.738,0,0,0,9.536,2.593q7.349,0,11.586-4.808a.4.4,0,0,1,.7.261v3.509a7.354,7.354,0,0,1-2.793,6.064,11.809,11.809,0,0,1-7.581,2.234,21.683,21.683,0,0,1-2.383-.132,1.465,1.465,0,0,0-1.61,1.466v8.025a1.651,1.651,0,0,0,1.49,1.644q1.748.167,3.54.169a29.106,29.106,0,0,0,12.248-2.433,19.155,19.155,0,0,0,8.259-6.942,18.724,18.724,0,0,0,2.953-10.492v-38.426a.913.913,0,0,0-.913-.913" transform="translate(3065.191 -321.893)"/>
    <path id="Path_1508" data-name="Path 1508" class="cls-2" d="M-73.641-75.868l-.423.527a.506.506,0,0,1-.724.067,4.176,4.176,0,0,0-2.646-1.018,3.808,3.808,0,0,0-3.879,3.817,3.821,3.821,0,0,0,3.879,3.832,4.409,4.409,0,0,0,2.674-.981.5.5,0,0,1,.684.064l.413.46a.515.515,0,0,1-.064.743,6.116,6.116,0,0,1-3.8,1.421,5.505,5.505,0,0,1-5.647-5.523,5.508,5.508,0,0,1,5.71-5.462,6.03,6.03,0,0,1,3.739,1.329.516.516,0,0,1,.085.724" transform="translate(2837.86 -457.131)"/>
    <path id="Path_1509" data-name="Path 1509" class="cls-2" d="M-43.383-17.283v-.76h-2.234c-1.163,0-1.706.31-1.706,1.1,0,.745.6,1.226,1.6,1.226,1.272,0,2.25-.668,2.343-1.567m-3.438-8.7h.342a.451.451,0,0,1,.424.324.95.95,0,0,0,.918.685.95.95,0,0,0,.918-.685.451.451,0,0,1,.424-.324h.342a.438.438,0,0,1,.436.522,2.1,2.1,0,0,1-2.121,1.681,2.1,2.1,0,0,1-2.121-1.681.438.438,0,0,1,.436-.522m3.453,10.6A3.346,3.346,0,0,1-46.1-14.3a2.613,2.613,0,0,1-2.9-2.56c0-1.5,1.133-2.467,3.119-2.482h2.5v-.248c0-1.039-.667-1.66-1.971-1.66a4.129,4.129,0,0,0-2.076.611.436.436,0,0,1-.59-.166l-.273-.464a.442.442,0,0,1,.161-.608,5.794,5.794,0,0,1,3.166-.816c2.126,0,3.32,1.086,3.336,2.9l.014,4.971a.442.442,0,0,1-.442.444h-.867a.443.443,0,0,1-.442-.442Z" transform="translate(2814.611 -509.762)"/>
    <path id="Path_1510" data-name="Path 1510" class="cls-2" d="M0,6.6V-3.9a.505.505,0,0,1,.505-.505h.773a.505.505,0,0,1,.506.505V6.6a.506.506,0,0,1-.506.505H.505A.505.505,0,0,1,0,6.6" transform="translate(2775.465 -531.248)"/>
    <path id="Path_1511" data-name="Path 1511" class="cls-2" d="M-43.383-17.283v-.76h-2.234c-1.163,0-1.706.31-1.706,1.1,0,.745.6,1.226,1.6,1.226,1.272,0,2.25-.668,2.343-1.567m-3.42-8.7h.314a.467.467,0,0,1,.437.333.95.95,0,0,0,.916.676.95.95,0,0,0,.916-.676.467.467,0,0,1,.437-.333h.317a.45.45,0,0,1,.448.538,2.094,2.094,0,0,1-2.117,1.666,2.092,2.092,0,0,1-2.105-1.62.461.461,0,0,1,.439-.584m3.435,10.6A3.346,3.346,0,0,1-46.1-14.3a2.613,2.613,0,0,1-2.9-2.56c0-1.5,1.133-2.467,3.119-2.482h2.5v-.248c0-1.039-.667-1.66-1.971-1.66a4.128,4.128,0,0,0-2.065.6.45.45,0,0,1-.608-.17l-.26-.442a.454.454,0,0,1,.166-.626,5.791,5.791,0,0,1,3.154-.81c2.126,0,3.32,1.086,3.336,2.9l.014,4.958a.455.455,0,0,1-.455.457h-.841a.456.456,0,0,1-.456-.456Z" transform="translate(2828.283 -509.762)"/>
    <path id="Path_1512" data-name="Path 1512" class="cls-2" d="M-41.461.273a.536.536,0,0,1-.285.651,3.764,3.764,0,0,1-1.608.379,2.174,2.174,0,0,1-2.312-2.4V-4.855a.529.529,0,0,0-.529-.529H-46.3a.529.529,0,0,1-.529-.529V-6.19a.529.529,0,0,1,.529-.529h.106a.529.529,0,0,0,.529-.529V-8.455a.529.529,0,0,1,.529-.529h.711a.528.528,0,0,1,.529.529v1.207a.529.529,0,0,0,.529.529h1.378a.529.529,0,0,1,.529.529v.277a.529.529,0,0,1-.529.529h-1.378a.529.529,0,0,0-.529.529v3.427c0,.853.326,1.117.885,1.117a2.184,2.184,0,0,0,.728-.139.534.534,0,0,1,.693.327Z" transform="translate(2835.051 -525.37)"/>
    <path id="Path_1513" data-name="Path 1513" class="cls-2" d="M-13.782-32.2a2.487,2.487,0,0,0,2.529,2.684A2.484,2.484,0,0,0-8.74-32.2a2.48,2.48,0,0,0-2.514-2.669A2.483,2.483,0,0,0-13.782-32.2m6.826-.015a4.044,4.044,0,0,1-4.3,4.189,4.049,4.049,0,0,1-4.313-4.189,4.04,4.04,0,0,1,4.313-4.189,4.036,4.036,0,0,1,4.3,4.189" transform="translate(2810.074 -496.051)"/>
    <path id="Path_1514" data-name="Path 1514" class="cls-2" d="M-13.782-55.6a2.929,2.929,0,0,1,2.236-1.658.541.541,0,0,1,.619.538v.592a.536.536,0,0,1-.5.533A2.44,2.44,0,0,0-13.782-53.3v3.774a.54.54,0,0,1-.54.539h-.7a.54.54,0,0,1-.54-.539V-56.7a.54.54,0,0,1,.54-.54h.7a.54.54,0,0,1,.54.54Z" transform="translate(2820.549 -475.156)"/>
    <path id="Path_1515" data-name="Path 1515" class="cls-2" d="M-1.2,6.919V-.351A.492.492,0,0,1-.707-.843H.078A.492.492,0,0,1,.57-.351V6.919a.492.492,0,0,1-.491.491H-.707A.492.492,0,0,1-1.2,6.919M.725-3.2a1.028,1.028,0,0,1-1.04,1.07A1.028,1.028,0,0,1-1.354-3.2,1.032,1.032,0,0,1-.315-4.288,1.032,1.032,0,0,1,.725-3.2" transform="translate(2812.296 -531.555)"/>
    <path id="Path_1516" data-name="Path 1516" class="cls-2" d="M-43.383-20.573v-.76h-2.234c-1.163,0-1.706.31-1.706,1.1,0,.745.6,1.226,1.6,1.226,1.272,0,2.25-.668,2.343-1.567m.015,1.893a3.346,3.346,0,0,1-2.73,1.086,2.613,2.613,0,0,1-2.9-2.56c0-1.5,1.133-2.467,3.119-2.482h2.5v-.248c0-1.039-.667-1.66-1.971-1.66a4.091,4.091,0,0,0-2.006.571.52.52,0,0,1-.7-.194l-.189-.322a.53.53,0,0,1,.21-.733,5.758,5.758,0,0,1,3.073-.765c2.126,0,3.32,1.086,3.336,2.9l.014,4.888a.525.525,0,0,1-.525.526h-.7a.525.525,0,0,1-.525-.525Z" transform="translate(2863.822 -506.473)"/>
    <path id="Path_1517" data-name="Path 1517" class="cls-2" d="M-56.155-56.526l-.35.411a.5.5,0,0,1-.679.071,3.173,3.173,0,0,0-2-.619,2.441,2.441,0,0,0-2.452,2.638,2.441,2.441,0,0,0,2.452,2.638,3.241,3.241,0,0,0,2.117-.68.493.493,0,0,1,.663.032l.315.316a.5.5,0,0,1,0,.714,4.364,4.364,0,0,1-3.171,1.154,3.971,3.971,0,0,1-4.158-4.174,3.987,3.987,0,0,1,4.158-4.2,4.568,4.568,0,0,1,3.059,1,.5.5,0,0,1,.053.706" transform="translate(2891.252 -474.231)"/>
    <path id="Path_1518" data-name="Path 1518" class="cls-2" d="M-13.782-32.2a2.487,2.487,0,0,0,2.529,2.684A2.484,2.484,0,0,0-8.74-32.2a2.48,2.48,0,0,0-2.514-2.669A2.483,2.483,0,0,0-13.782-32.2m6.826-.015a4.044,4.044,0,0,1-4.3,4.189,4.049,4.049,0,0,1-4.313-4.189,4.04,4.04,0,0,1,4.313-4.189,4.036,4.036,0,0,1,4.3,4.189" transform="translate(2851.821 -496.051)"/>
    <path id="Path_1519" data-name="Path 1519" class="cls-2" d="M-61-41.624v4.64a.5.5,0,0,1-.5.5h-.794a.5.5,0,0,1-.5-.5v-4.144a1.839,1.839,0,0,0-1.986-2,2.312,2.312,0,0,0-2.343,2.25v3.895a.5.5,0,0,1-.5.5H-68.4a.5.5,0,0,1-.5-.5v-7.263a.5.5,0,0,1,.5-.5h.794a.5.5,0,0,1,.5.5v1.087A3.117,3.117,0,0,1-64.071-44.8,2.883,2.883,0,0,1-61-41.624" transform="translate(2915.625 -487.656)"/>
    <path id="Path_1520" data-name="Path 1520" class="cls-2" d="M-41.539.575a.5.5,0,0,1-.266.606,3.772,3.772,0,0,1-1.637.393,2.174,2.174,0,0,1-2.312-2.4v-3.79a.493.493,0,0,0-.493-.492h-.178a.493.493,0,0,1-.492-.493v-.349a.493.493,0,0,1,.492-.493h.178a.492.492,0,0,0,.493-.492V-8.22a.493.493,0,0,1,.492-.492h.784a.492.492,0,0,1,.492.492v1.28a.492.492,0,0,0,.493.492h1.45a.493.493,0,0,1,.492.493v.349a.493.493,0,0,1-.492.493h-1.45a.493.493,0,0,0-.493.492v3.464c0,.853.326,1.117.885,1.117a2.219,2.219,0,0,0,.763-.151.5.5,0,0,1,.646.3Z" transform="translate(2903.098 -525.64)"/>
    <path id="Path_1521" data-name="Path 1521" class="cls-2" d="M-1.2,6.827V-.425a.5.5,0,0,1,.5-.5H.069a.5.5,0,0,1,.5.5V6.827a.5.5,0,0,1-.5.5H-.7a.5.5,0,0,1-.5-.5M.725-3.285A1.027,1.027,0,0,1-.314-2.214a1.028,1.028,0,0,1-1.04-1.07A1.032,1.032,0,0,1-.314-4.371,1.032,1.032,0,0,1,.725-3.285" transform="translate(2864.534 -531.472)"/>
    <path id="Path_1522" data-name="Path 1522" class="cls-2" d="M-61-41.624v4.618a.517.517,0,0,1-.517.517h-.751a.517.517,0,0,1-.517-.517v-4.122a1.839,1.839,0,0,0-1.986-2,2.312,2.312,0,0,0-2.343,2.25v3.873a.517.517,0,0,1-.517.517h-.75a.517.517,0,0,1-.517-.517v-7.22a.517.517,0,0,1,.517-.517h.75a.517.517,0,0,1,.517.517v1.065A3.118,3.118,0,0,1-64.071-44.8,2.884,2.884,0,0,1-61-41.624" transform="translate(2936.638 -487.656)"/>
    <path id="Path_1526" data-name="Path 1526" class="cls-1" d="M-8.861-53.549v2.472h.543c.364,0,.563-.167.563-.689v-1.1c0-.521-.2-.688-.563-.688Zm2.253.762v.949c0,1.168-.564,1.8-1.71,1.8h-.543v2.743h-1.147v-7.3h1.69c1.147,0,1.71.636,1.71,1.8" transform="translate(2728.008 -492.749)"/>
    <path id="Path_1527" data-name="Path 1527" class="cls-1" d="M-8.861-53.549v2.242h.448c.428,0,.689-.188.689-.772v-.72c0-.522-.177-.751-.584-.751Zm1.251,6.258a2.243,2.243,0,0,1-.1-.9v-1.147c0-.678-.229-.928-.75-.928h-.4v2.972h-1.147v-7.3h1.731c1.189,0,1.7.553,1.7,1.679v.574a1.441,1.441,0,0,1-.751,1.471v.021c.573.24.761.782.761,1.544v1.126a2.154,2.154,0,0,0,.125.887Z" transform="translate(2731.939 -492.749)"/>
    <path id="Path_1528" data-name="Path 1528" class="cls-1" d="M-8.861-9.671c0,.522.229.72.594.72s.595-.2.595-.72v-3.942c0-.522-.229-.719-.595-.719s-.594.2-.594.719Zm-1.147-3.869a1.62,1.62,0,0,1,1.741-1.835A1.62,1.62,0,0,1-6.525-13.54v3.8A1.62,1.62,0,0,1-8.267-7.909a1.62,1.62,0,0,1-1.741-1.835Z" transform="translate(2736.038 -532.048)"/>
    <path id="Path_1529" data-name="Path 1529" class="cls-1" d="M-14.018-32.892h1.606v2.315c0,1.168-.584,1.835-1.71,1.835s-1.71-.667-1.71-1.835v-3.8c0-1.168.584-1.835,1.71-1.835s1.71.667,1.71,1.835v.709H-13.5v-.782c0-.522-.23-.719-.595-.719s-.594.2-.594.719V-30.5c0,.522.229.709.594.709s.595-.188.595-.709v-1.345h-.522Z" transform="translate(2745.992 -511.215)"/>
    <path id="Path_1530" data-name="Path 1530" class="cls-1" d="M-8.861-53.549v2.242h.448c.428,0,.689-.188.689-.772v-.72c0-.522-.177-.751-.584-.751Zm1.251,6.258a2.243,2.243,0,0,1-.1-.9v-1.147c0-.678-.229-.928-.75-.928h-.4v2.972h-1.147v-7.3h1.731c1.189,0,1.7.553,1.7,1.679v.574a1.441,1.441,0,0,1-.751,1.471v.021c.573.24.761.782.761,1.544v1.126a2.154,2.154,0,0,0,.125.887Z" transform="translate(2744.327 -492.749)"/>
    <path id="Path_1531" data-name="Path 1531" class="cls-1" d="M-10.794-15.215h1.105l-.542-3.691h-.021ZM-8.177-12.9H-9.334l-.2-1.325H-10.94l-.2,1.325h-1.053l1.168-7.3h1.679Z" transform="translate(2750.4 -527.14)"/>
    <path id="Path_1532" data-name="Path 1532" class="cls-1" d="M-18.77-13.287h.021l.772-5.183h1.6v7.3h-1.085v-5.235h-.021l-.772,5.235h-1.084l-.834-5.162H-20.2v5.162h-1v-7.3h1.6Z" transform="translate(2763.944 -528.87)"/>
    <path id="Path_1533" data-name="Path 1533" class="cls-1" d="M-8.857-64.5v5.631c0,.522.229.709.595.709s.594-.188.594-.709V-64.5h1.085v5.559c0,1.168-.584,1.835-1.71,1.835S-10-57.778-10-58.945V-64.5Z" transform="translate(2758.348 -482.836)"/>
    <path id="Path_1534" data-name="Path 1534" class="cls-1" d="M0-63.688H1.147v6.258H3.035v1.043H0Z" transform="translate(2752.546 -483.653)"/>
    <path id="Path_1535" data-name="Path 1535" class="cls-1" d="M-8.861-9.671c0,.522.229.72.594.72s.595-.2.595-.72v-3.942c0-.522-.229-.719-.595-.719s-.594.2-.594.719Zm-1.147-3.869a1.62,1.62,0,0,1,1.741-1.835A1.62,1.62,0,0,1-6.525-13.54v3.8A1.62,1.62,0,0,1-8.267-7.909a1.62,1.62,0,0,1-1.741-1.835Z" transform="translate(2767.611 -532.048)"/>
    <path id="Path_1536" data-name="Path 1536" class="cls-1" d="M-8.861-53.549v2.472h.543c.364,0,.563-.167.563-.689v-1.1c0-.521-.2-.688-.563-.688Zm2.253.762v.949c0,1.168-.564,1.8-1.71,1.8h-.543v2.743h-1.147v-7.3h1.69c1.147,0,1.71.636,1.71,1.8" transform="translate(2771.834 -492.749)"/>
    <path id="Path_1537" data-name="Path 1537" class="cls-1" d="M-8.861-33.774h1.575v1.043H-8.861v2.138H-6.88v1.043h-3.128v-7.3H-6.88v1.043H-8.861Z" transform="translate(2775.765 -510.49)"/>
    <path id="Path_1538" data-name="Path 1538" class="cls-1" d="M-8.861-53.549v2.242h.448c.428,0,.689-.188.689-.772v-.72c0-.522-.177-.751-.584-.751Zm1.251,6.258a2.243,2.243,0,0,1-.1-.9v-1.147c0-.678-.229-.928-.75-.928h-.4v2.972h-1.147v-7.3h1.731c1.189,0,1.7.553,1.7,1.679v.574a1.441,1.441,0,0,1-.751,1.471v.021c.573.24.761.782.761,1.544v1.126a2.154,2.154,0,0,0,.125.887Z" transform="translate(2779.603 -492.749)"/>
    <path id="Path_1539" data-name="Path 1539" class="cls-1" d="M-10.794-15.215h1.105l-.542-3.691h-.021ZM-8.177-12.9H-9.334l-.2-1.325H-10.94l-.2,1.325h-1.053l1.168-7.3h1.679Z" transform="translate(2785.676 -527.14)"/>
    <path id="Path_1540" data-name="Path 1540" class="cls-1" d="M-9.986,3.692v-.96h.96v.855l-.449.668h-.406l.271-.563Zm-1.293-8.6h3.546v1.043h-1.2V2.388H-10.08V-3.869h-1.2Z" transform="translate(2788.579 -542.428)"/>
    <rect id="Rectangle_2057" data-name="Rectangle 2057" class="cls-1" width="1.147" height="7.3" transform="translate(2781.346 -547.34)"/>
    <path id="Path_1541" data-name="Path 1541" class="cls-1" d="M-8.861-9.671c0,.522.229.72.594.72s.595-.2.595-.72v-3.942c0-.522-.229-.719-.595-.719s-.594.2-.594.719Zm-1.147-3.869a1.62,1.62,0,0,1,1.741-1.835A1.62,1.62,0,0,1-6.525-13.54v3.8A1.62,1.62,0,0,1-8.267-7.909a1.62,1.62,0,0,1-1.741-1.835Z" transform="translate(2793.241 -532.048)"/>
    <path id="Path_1542" data-name="Path 1542" class="cls-1" d="M-8.134-44.112h-.021v5.287H-9.188v-7.3h1.439l1.157,4.37h.021v-4.37h1.022v7.3H-6.726Z" transform="translate(2796.634 -501.215)"/>
    <path id="Path_1543" data-name="Path 1543" class="cls-1" d="M-10.794-15.215h1.105l-.542-3.691h-.021ZM-8.177-12.9H-9.334l-.2-1.325H-10.94l-.2,1.325h-1.053l1.168-7.3h1.679Z" transform="translate(2803.798 -527.14)"/>
    <path id="Path_1544" data-name="Path 1544" class="cls-1" d="M0-63.688H1.147v6.258H3.035v1.043H0Z" transform="translate(2796.153 -483.653)"/>
    <path id="Path_1545" data-name="Path 1545" class="cls-1" d="M-8.861-53.549v2.242h.448c.428,0,.689-.188.689-.772v-.72c0-.522-.177-.751-.584-.751Zm1.251,6.258a2.243,2.243,0,0,1-.1-.9v-1.147c0-.678-.229-.928-.75-.928h-.4v2.972h-1.147v-7.3h1.731c1.189,0,1.7.553,1.7,1.679v.574a1.441,1.441,0,0,1-.751,1.471v.021c.573.24.761.782.761,1.544v1.126a2.154,2.154,0,0,0,.125.887Z" transform="translate(2811.312 -492.749)"/>
    <path id="Path_1546" data-name="Path 1546" class="cls-1" d="M-8.861-33.774h1.575v1.043H-8.861v2.138H-6.88v1.043h-3.128v-7.3H-6.88v1.043H-8.861Z" transform="translate(2815.504 -510.49)"/>
    <path id="Path_1547" data-name="Path 1547" class="cls-1" d="M-14.018-32.892h1.606v2.315c0,1.168-.584,1.835-1.71,1.835s-1.71-.667-1.71-1.835v-3.8c0-1.168.584-1.835,1.71-1.835s1.71.667,1.71,1.835v.709H-13.5v-.782c0-.522-.23-.719-.595-.719s-.594.2-.594.719V-30.5c0,.522.229.709.594.709s.595-.188.595-.709v-1.345h-.522Z" transform="translate(2825.072 -511.215)"/>
    <rect id="Rectangle_2058" data-name="Rectangle 2058" class="cls-1" width="1.147" height="7.3" transform="translate(2813.399 -547.34)"/>
    <path id="Path_1548" data-name="Path 1548" class="cls-1" d="M-8.861-9.671c0,.522.229.72.594.72s.595-.2.595-.72v-3.942c0-.522-.229-.719-.595-.719s-.594.2-.594.719Zm-1.147-3.869a1.62,1.62,0,0,1,1.741-1.835A1.62,1.62,0,0,1-6.525-13.54v3.8A1.62,1.62,0,0,1-8.267-7.909a1.62,1.62,0,0,1-1.741-1.835Z" transform="translate(2825.295 -532.048)"/>
    <path id="Path_1549" data-name="Path 1549" class="cls-1" d="M-8.134-44.112h-.021v5.287H-9.188v-7.3h1.439l1.157,4.37h.021v-4.37h1.022v7.3H-6.726Z" transform="translate(2828.687 -501.215)"/>
    <path id="Path_1550" data-name="Path 1550" class="cls-1" d="M-10.794-15.215h1.105l-.542-3.691h-.021ZM-8.177-12.9H-9.334l-.2-1.325H-10.94l-.2,1.325h-1.053l1.168-7.3h1.679Z" transform="translate(2835.851 -527.14)"/>
    <path id="Path_1551" data-name="Path 1551" class="cls-1" d="M0-63.688H1.147v6.258H3.035v1.043H0Z" transform="translate(2828.206 -483.653)"/>
    <path id="Path_1493" data-name="Path 1493" class="cls-1" d="M-13.3-65.142c1.116,0,1.689.667,1.689,1.835v.229h-1.085v-.3c0-.521-.209-.719-.574-.719s-.574.2-.574.719.23.928.981,1.586A2.83,2.83,0,0,1-11.6-59.51c0,1.168-.584,1.835-1.71,1.835s-1.711-.668-1.711-1.835v-.448h1.085v.521c0,.522.229.71.594.71s.595-.188.595-.71-.229-.928-.981-1.585a2.832,2.832,0,0,1-1.262-2.284c0-1.168.574-1.835,1.69-1.835" transform="translate(2883.639 -482.282)"/>
    <path id="Path_1494" data-name="Path 1494" class="cls-1" d="M-8.857-64.5v5.631c0,.522.229.709.595.709s.594-.188.594-.709V-64.5h1.085v5.559c0,1.168-.584,1.835-1.71,1.835S-10-57.778-10-58.945V-64.5Z" transform="translate(2882.652 -482.836)"/>
  </g>
</svg>
