<svg xmlns="http://www.w3.org/2000/svg" width="86.366" height="90" viewBox="0 0 86.366 90">
  <defs>
    <style>
      .cls-1 {
        fill: #124094;
      }
    </style>
  </defs>
  <path id="UE" class="cls-1" d="M58.272,89.833a2.811,2.811,0,0,1-.835-.407l.465-.689a2.544,2.544,0,0,0,1.383.5,1.778,1.778,0,0,0,.92-.2.583.583,0,0,0,.337-.5q0-.589-.849-.589a3.3,3.3,0,0,0-.523.074,3.281,3.281,0,0,1-.592.075q-1.031,0-1.031-.783a.561.561,0,0,1,.241-.435,1.478,1.478,0,0,1,.6-.282,1.843,1.843,0,0,1-.493-2.943,1.812,1.812,0,0,1,1.305-.509,1.856,1.856,0,0,1,1.115.3l.431-.518.559.531-.514.391a1.8,1.8,0,0,1,.329,1.125,1.769,1.769,0,0,1-.456,1.236,1.791,1.791,0,0,1-1.2.572l-.707.074a1.388,1.388,0,0,0-.34.1q-.212.084-.211.219,0,.185.443.185a4.018,4.018,0,0,0,.605-.069,4.146,4.146,0,0,1,.61-.07,1.666,1.666,0,0,1,1.114.342,1.183,1.183,0,0,1,.4.949,1.26,1.26,0,0,1-.6,1.083A2.615,2.615,0,0,1,59.262,90,3.251,3.251,0,0,1,58.272,89.833Zm.252-5.674a1.122,1.122,0,0,0-.283.772,1.282,1.282,0,0,0,.274.843.9.9,0,0,0,.739.334.865.865,0,0,0,.717-.325,1.332,1.332,0,0,0,.258-.853,1.136,1.136,0,0,0-.279-.772.886.886,0,0,0-.695-.316A.933.933,0,0,0,58.524,84.159Zm24.128,3.614a1.4,1.4,0,0,1-.418-1.034,1.548,1.548,0,0,1,.643-1.253,2.552,2.552,0,0,1,1.638-.511,1.866,1.866,0,0,1,.613.122q0-1.181-1.047-1.18a1.666,1.666,0,0,0-1.237.436l-.36-.725a2.128,2.128,0,0,1,.675-.34,2.635,2.635,0,0,1,.824-.143,2.084,2.084,0,0,1,1.529.482,2.108,2.108,0,0,1,.476,1.529V86.9a.9.9,0,0,0,.378.853v.427a1.628,1.628,0,0,1-.783-.148.836.836,0,0,1-.373-.493,1.884,1.884,0,0,1-1.574.65A1.346,1.346,0,0,1,82.653,87.773Zm.852-1.819a1,1,0,0,0-.41.8c0,.505.3.76.886.76a1.451,1.451,0,0,0,1.148-.623V85.71a2.957,2.957,0,0,0-.568-.094A1.608,1.608,0,0,0,83.5,85.954Zm-3.683.771V81.251h.86v5.329a.84.84,0,0,0,.223.615.786.786,0,0,0,.583.224v.771Q79.822,88.189,79.821,86.725Zm-4.753,1.047a1.4,1.4,0,0,1-.418-1.034,1.551,1.551,0,0,1,.643-1.253,2.554,2.554,0,0,1,1.638-.511,1.854,1.854,0,0,1,.613.122q0-1.181-1.046-1.18a1.667,1.667,0,0,0-1.237.436l-.361-.725a2.136,2.136,0,0,1,.676-.34,2.627,2.627,0,0,1,.823-.143,2.081,2.081,0,0,1,1.529.482,2.1,2.1,0,0,1,.476,1.529V86.9a.9.9,0,0,0,.379.853v.427A1.637,1.637,0,0,1,78,88.032a.842.842,0,0,1-.373-.493,1.882,1.882,0,0,1-1.573.65A1.346,1.346,0,0,1,75.069,87.773Zm.853-1.819a1,1,0,0,0-.41.8c0,.505.3.76.886.76a1.449,1.449,0,0,0,1.147-.623V85.71a2.935,2.935,0,0,0-.567-.094A1.606,1.606,0,0,0,75.922,85.954ZM65.153,87.5a2.768,2.768,0,0,1-.578-1.847,2.672,2.672,0,0,1,.6-1.819,2.223,2.223,0,0,1,3.2-.026,3.239,3.239,0,0,1-.014,3.7,2.227,2.227,0,0,1-3.207-.008Zm.676-3.172a2.217,2.217,0,0,0-.348,1.325q0,1.828,1.283,1.827a1.078,1.078,0,0,0,.937-.489,2.315,2.315,0,0,0,.34-1.337q0-1.8-1.276-1.8A1.1,1.1,0,0,0,65.829,84.331ZM52.965,87.567a2.446,2.446,0,0,1-.709-1.843,2.6,2.6,0,0,1,.728-1.931,2.107,2.107,0,0,1,1.539-.648,2.192,2.192,0,0,1,1.62.587,2.013,2.013,0,0,1,.569,1.5,1.979,1.979,0,0,1-.068.527H53.163a1.759,1.759,0,0,0,.463,1.31,1.455,1.455,0,0,0,1.056.4,1.789,1.789,0,0,0,1.227-.436l.36.622A1.654,1.654,0,0,1,55.66,88a3.26,3.26,0,0,1-1.146.192A2.136,2.136,0,0,1,52.965,87.567Zm.637-3.323a1.368,1.368,0,0,0-.421.889h2.681a1.25,1.25,0,0,0-.325-.88,1.268,1.268,0,0,0-.972-.383A1.334,1.334,0,0,0,53.6,84.245ZM39.759,87.567a2.442,2.442,0,0,1-.709-1.843,2.609,2.609,0,0,1,.727-1.931,2.11,2.11,0,0,1,1.54-.648,2.192,2.192,0,0,1,1.62.587,2.017,2.017,0,0,1,.568,1.5,1.981,1.981,0,0,1-.067.527H39.956a1.754,1.754,0,0,0,.463,1.31,1.452,1.452,0,0,0,1.055.4,1.784,1.784,0,0,0,1.227-.436l.361.622a1.654,1.654,0,0,1-.609.347,3.267,3.267,0,0,1-1.147.192A2.132,2.132,0,0,1,39.759,87.567Zm.636-3.323a1.371,1.371,0,0,0-.42.889h2.68a1.249,1.249,0,0,0-.325-.88,1.264,1.264,0,0,0-.972-.383A1.335,1.335,0,0,0,40.395,84.245Zm-9.312,3.528a1.4,1.4,0,0,1-.418-1.034,1.551,1.551,0,0,1,.643-1.253,2.552,2.552,0,0,1,1.638-.511,1.86,1.86,0,0,1,.613.122q0-1.181-1.046-1.18a1.669,1.669,0,0,0-1.238.436l-.36-.725a2.139,2.139,0,0,1,.675-.34,2.635,2.635,0,0,1,.824-.143,2.084,2.084,0,0,1,1.529.482,2.108,2.108,0,0,1,.476,1.529V86.9a.893.893,0,0,0,.379.853v.427a1.634,1.634,0,0,1-.785-.148.836.836,0,0,1-.373-.493,1.882,1.882,0,0,1-1.573.65A1.346,1.346,0,0,1,31.083,87.773Zm.852-1.819a1.008,1.008,0,0,0-.41.8c0,.505.3.76.886.76a1.451,1.451,0,0,0,1.148-.623V85.71a2.952,2.952,0,0,0-.567-.094A1.609,1.609,0,0,0,31.935,85.954ZM27.951,87.76a1.533,1.533,0,0,1-.4-1.084V83.917H26.99v-.679h.564V82.223l.86-.331v1.346h1.331v.679H28.415v2.416a1.43,1.43,0,0,0,.207.874.8.8,0,0,0,.664.258,1.6,1.6,0,0,0,.685-.168l.126.756a4.764,4.764,0,0,1-1.173.136A1.271,1.271,0,0,1,27.951,87.76Zm-3.364-1.035V81.251h.86v5.329a.839.839,0,0,0,.222.615.79.79,0,0,0,.583.224v.771Q24.587,88.189,24.587,86.725Zm-4.762.778a2.768,2.768,0,0,1-.578-1.847,2.672,2.672,0,0,1,.6-1.819,2.222,2.222,0,0,1,3.2-.026,3.24,3.24,0,0,1-.013,3.7,2.227,2.227,0,0,1-3.207-.008Zm.676-3.172a2.217,2.217,0,0,0-.349,1.325q0,1.828,1.284,1.827a1.078,1.078,0,0,0,.937-.489,2.313,2.313,0,0,0,.34-1.337q0-1.8-1.277-1.8A1.1,1.1,0,0,0,20.5,84.331Zm-3.95,3.858-2.071-4.96h.944l1.271,3.4L18,83.229h.9l-2.126,4.96ZM6,87.567a2.447,2.447,0,0,1-.708-1.843,2.609,2.609,0,0,1,.727-1.931,2.112,2.112,0,0,1,1.54-.648,2.192,2.192,0,0,1,1.621.587,2.013,2.013,0,0,1,.568,1.5,1.97,1.97,0,0,1-.067.527H6.2a1.759,1.759,0,0,0,.463,1.31,1.453,1.453,0,0,0,1.055.4,1.784,1.784,0,0,0,1.227-.436l.361.622A1.652,1.652,0,0,1,8.695,88a3.268,3.268,0,0,1-1.147.192A2.134,2.134,0,0,1,6,87.567Zm.636-3.323a1.373,1.373,0,0,0-.42.889H8.9a1.246,1.246,0,0,0-.326-.88,1.265,1.265,0,0,0-.972-.383A1.338,1.338,0,0,0,6.636,84.245ZM72.827,88.1V85.268a1.875,1.875,0,0,0-.233-1.086.906.906,0,0,0-.778-.312,1.267,1.267,0,0,0-.614.177,1.359,1.359,0,0,0-.492.436V88.1h-.86V83.238h.587l.271.625a1.487,1.487,0,0,1,1.388-.718q1.589,0,1.59,1.943V88.1Zm-10.167,0V83.963h-.667v-.725h1.525V88.1Zm-11.735,0-1.761-2.851c-.2,0-.52-.016-.956-.046v2.9H47.3V81.449c.034,0,.268-.01.7-.034s.752-.034.951-.034q2.387,0,2.386,1.908a1.806,1.806,0,0,1-.384,1.128,1.586,1.586,0,0,1-.911.623L51.961,88.1Zm-2.718-5.834v2.167a4.825,4.825,0,0,0,.631.045,2.066,2.066,0,0,0,1.18-.264,1.082,1.082,0,0,0,.37-.942.875.875,0,0,0-.4-.8,2.451,2.451,0,0,0-1.254-.246C48.65,82.217,48.473,82.233,48.208,82.263ZM35.836,88.1V83.238h.86v.771a1.5,1.5,0,0,1,1.4-.864,4.013,4.013,0,0,1,.665.082l-.358.838a.977.977,0,0,0-.565-.2,1,1,0,0,0-.8.421,1.559,1.559,0,0,0-.342,1.016V88.1Zm-25.615,0v-.228l2.755-3.859H10.268v-.771h3.957v.245l-2.653,3.842h2.68V88.1ZM0,88.1V81.454q1.274-.044,1.631-.044a2.894,2.894,0,0,1,2.194.845,3.126,3.126,0,0,1,.807,2.25q0,3.593-3.3,3.592Zm.906-5.826v4.963a5.264,5.264,0,0,0,.747.045,1.761,1.761,0,0,0,1.485-.713,3.22,3.22,0,0,0,.541-1.983q0-2.357-2.1-2.356C1.493,82.226,1.27,82.242.906,82.271Zm61.854.041a.528.528,0,0,1-.157-.381.526.526,0,0,1,.53-.531.533.533,0,0,1,.534.531.533.533,0,0,1-.534.537A.518.518,0,0,1,62.761,82.312Zm20.33-.467a1.513,1.513,0,0,1-.384-1.05h.638a.7.7,0,0,0,.229.531.776.776,0,0,0,.572.25.932.932,0,0,0,.646-.235.713.713,0,0,0,.261-.545H85.7a1.479,1.479,0,0,1-.425,1.006,1.443,1.443,0,0,1-1.13.471A1.346,1.346,0,0,1,83.09,81.845ZM51.667,79.216V72.454h.86v.4a1.6,1.6,0,0,1,1.179-.492,2.04,2.04,0,0,1,1.6.644,3.257,3.257,0,0,1,0,3.7,2.044,2.044,0,0,1-1.672.7,2.2,2.2,0,0,1-.656-.108.877.877,0,0,1-.45-.249v2.169Zm1.274-6a1.472,1.472,0,0,0-.415.286v2.837a.767.767,0,0,0,.343.234,1.3,1.3,0,0,0,.509.111q1.6,0,1.6-1.816a2,2,0,0,0-.379-1.351,1.546,1.546,0,0,0-1.214-.427A1.062,1.062,0,0,0,52.942,73.212ZM80.1,76.783a2.445,2.445,0,0,1-.709-1.843,2.6,2.6,0,0,1,.728-1.93,2.1,2.1,0,0,1,1.539-.649,2.191,2.191,0,0,1,1.62.586,2.014,2.014,0,0,1,.569,1.5,1.992,1.992,0,0,1-.068.528H80.294a1.759,1.759,0,0,0,.463,1.309,1.45,1.45,0,0,0,1.055.4,1.784,1.784,0,0,0,1.228-.436l.36.622a1.637,1.637,0,0,1-.609.347,3.239,3.239,0,0,1-1.146.192A2.134,2.134,0,0,1,80.1,76.783Zm.636-3.323a1.374,1.374,0,0,0-.42.889h2.681a1.24,1.24,0,0,0-.326-.879,1.265,1.265,0,0,0-.972-.384A1.338,1.338,0,0,0,80.732,73.46ZM62.027,76.988a1.4,1.4,0,0,1-.417-1.034,1.55,1.55,0,0,1,.641-1.253,2.552,2.552,0,0,1,1.638-.51,1.856,1.856,0,0,1,.613.121c0-.787-.347-1.18-1.046-1.18a1.666,1.666,0,0,0-1.237.436l-.361-.725a2.137,2.137,0,0,1,.676-.34,2.634,2.634,0,0,1,.823-.142,2.081,2.081,0,0,1,1.528.481,2.1,2.1,0,0,1,.476,1.529v1.743a.9.9,0,0,0,.379.854V77.4a1.626,1.626,0,0,1-.783-.148.838.838,0,0,1-.374-.493,1.882,1.882,0,0,1-1.573.65A1.346,1.346,0,0,1,62.027,76.988Zm.853-1.819a1,1,0,0,0-.41.8c0,.506.3.76.886.76A1.451,1.451,0,0,0,64.5,76.1v-1.18a3.039,3.039,0,0,0-.567-.094A1.606,1.606,0,0,0,62.88,75.169Zm-5.668,1.614A2.444,2.444,0,0,1,56.5,74.94a2.6,2.6,0,0,1,.727-1.93,2.1,2.1,0,0,1,1.539-.649,2.189,2.189,0,0,1,1.62.586,2.014,2.014,0,0,1,.569,1.5,1.943,1.943,0,0,1-.068.528H57.409a1.754,1.754,0,0,0,.464,1.309,1.446,1.446,0,0,0,1.055.4,1.781,1.781,0,0,0,1.227-.436l.36.622a1.63,1.63,0,0,1-.609.347,3.239,3.239,0,0,1-1.146.192A2.136,2.136,0,0,1,57.212,76.783Zm.637-3.323a1.363,1.363,0,0,0-.42.889h2.68a1.245,1.245,0,0,0-.325-.879,1.269,1.269,0,0,0-.972-.384A1.336,1.336,0,0,0,57.849,73.46Zm-10.88,3.259a2.772,2.772,0,0,1-.577-1.846,2.668,2.668,0,0,1,.6-1.819,2.221,2.221,0,0,1,3.2-.027,3.239,3.239,0,0,1-.014,3.7,2.228,2.228,0,0,1-3.208-.008Zm.677-3.172a2.218,2.218,0,0,0-.349,1.326q0,1.826,1.283,1.827a1.078,1.078,0,0,0,.937-.489,2.309,2.309,0,0,0,.341-1.337q0-1.8-1.278-1.805A1.1,1.1,0,0,0,47.646,73.547Zm-9.208,3.4a1.852,1.852,0,0,1-.421-1.3v-3.19h.86v3.1q0,1.126.969,1.125a1.339,1.339,0,0,0,.777-.244,1.174,1.174,0,0,0,.463-.568V72.454h.86v4.858h-.86V76.64a1.341,1.341,0,0,1-.579.525,1.763,1.763,0,0,1-.852.24A1.574,1.574,0,0,1,38.438,76.947ZM27.663,75.94V70.466h.86v5.328a.839.839,0,0,0,.222.615.79.79,0,0,0,.583.225v.77Q27.662,77.4,27.663,75.94Zm-4.739,1.006a1.847,1.847,0,0,1-.422-1.3v-3.19h.86v3.1q0,1.126.97,1.125a1.336,1.336,0,0,0,.776-.244,1.174,1.174,0,0,0,.463-.568V72.454h.86v4.858h-.86V76.64a1.335,1.335,0,0,1-.579.525,1.763,1.763,0,0,1-.852.24A1.572,1.572,0,0,1,22.923,76.947ZM7.649,76.718a2.766,2.766,0,0,1-.578-1.846,2.668,2.668,0,0,1,.6-1.819,2,2,0,0,1,1.588-.693,2.006,2.006,0,0,1,1.609.665,3.24,3.24,0,0,1-.013,3.7,2,2,0,0,1-1.6.678A1.992,1.992,0,0,1,7.649,76.718Zm.676-3.172a2.218,2.218,0,0,0-.347,1.326q0,1.826,1.283,1.827a1.078,1.078,0,0,0,.936-.489,2.309,2.309,0,0,0,.341-1.337q0-1.8-1.277-1.805A1.1,1.1,0,0,0,8.324,73.547Zm66.523,3.2A2.575,2.575,0,0,1,74.283,75a2.809,2.809,0,0,1,.651-1.867,1.962,1.962,0,0,1,1.548-.772,1.63,1.63,0,0,1,1.139.355v-2.25h.86v6.846h-.86v-.358a1.774,1.774,0,0,1-1.3.442A1.858,1.858,0,0,1,74.847,76.743Zm.769-3.14a1.989,1.989,0,0,0-.427,1.314q0,1.753,1.589,1.754a1.227,1.227,0,0,0,.486-.129.708.708,0,0,0,.356-.275V73.575a1.013,1.013,0,0,0-.889-.489A1.371,1.371,0,0,0,75.616,73.6Zm-57.924,3.14A2.576,2.576,0,0,1,17.128,75a2.8,2.8,0,0,1,.651-1.867,1.962,1.962,0,0,1,1.548-.772,1.631,1.631,0,0,1,1.139.355v-2.25h.86v6.846h-.86v-.358a1.776,1.776,0,0,1-1.3.442A1.858,1.858,0,0,1,17.693,76.743Zm.769-3.14a1.988,1.988,0,0,0-.427,1.314q0,1.753,1.589,1.754a1.226,1.226,0,0,0,.486-.129.71.71,0,0,0,.357-.275V73.575a1.014,1.014,0,0,0-.889-.489A1.372,1.372,0,0,0,18.461,73.6Zm51.23,3.709V74.483A1.88,1.88,0,0,0,69.46,73.4a.909.909,0,0,0-.779-.311,1.281,1.281,0,0,0-.614.177,1.377,1.377,0,0,0-.492.436v3.614h-.86V72.454H67.3l.272.625a1.488,1.488,0,0,1,1.388-.719q1.591,0,1.59,1.943v3.008Zm-26.513,0V72.454h.86v.77a1.505,1.505,0,0,1,1.4-.864,4.009,4.009,0,0,1,.664.082l-.358.837a.979.979,0,0,0-.566-.195,1,1,0,0,0-.8.421,1.56,1.56,0,0,0-.342,1.015v2.79Zm-10,0V70.671h3.9v.817H34.081v1.839h2.135v.77H34.081v2.4h2.995v.818Zm-17.853,0V74.483A1.878,1.878,0,0,0,15.09,73.4a.907.907,0,0,0-.778-.311,1.278,1.278,0,0,0-.614.177,1.369,1.369,0,0,0-.492.436v3.614h-.86V72.454h.587l.272.625a1.486,1.486,0,0,1,1.388-.719q1.59,0,1.59,1.943v3.008Zm-12.725,0V70.671H6.683v.817H3.5v1.839h2.32v.77H3.5v3.214Zm82.21-9.589H1.56v-55.7H84.807v55.7h0ZM43.3,60.286l1.806,1.451-.726-2.355,1.987-1.452H44.027L43.3,55.57l-.725,2.36H40.052l1.984,1.452-.72,2.355L43.3,60.286Zm9.208-2.538L54.5,59.2l-.721-2.36,1.806-1.448H53.235l-.722-2.178-.723,2.178H49.443l1.806,1.448-.723,2.36,1.987-1.449Zm-18.6,0L35.719,59.2,35,56.837l1.984-1.448H34.455l-.544-2.178-.9,2.178H30.66l1.99,1.448-.723,2.36,1.984-1.449Zm25.464-6.714,1.986,1.45-.9-2.36,1.986-1.448H60.1l-.724-2.361-.723,2.361H56.3l1.8,1.448-.72,2.36,1.985-1.45Zm-32.324,0,1.984,1.45-.719-2.36,1.806-1.448H27.773l-.722-2.361-.723,2.361H23.98l1.984,1.448-.9,2.36,1.987-1.45ZM61.9,41.416l1.984,1.453-.722-2.357,1.986-1.45H62.627L61.9,36.7l-.725,2.36H58.832l1.989,1.45-.9,2.357L61.9,41.416Zm-37.381,0,1.985,1.453-.721-2.357,1.985-1.45h-2.53l-.719-2.36-.725,2.36H21.453l1.984,1.45-.72,2.357,1.807-1.453Zm34.851-9.433,1.986,1.45-.9-2.356,1.986-1.454H60.1l-.724-2.18-.723,2.18H56.3l1.8,1.454-.72,2.356,1.985-1.45Zm-32.324,0,1.984,1.45-.719-2.174,1.806-1.636H27.773l-.722-2.18-.723,2.18H23.98l1.984,1.636-.9,2.174,1.987-1.45Zm25.463-6.9L54.5,26.541l-.721-2.36,1.806-1.455H53.235l-.722-2.174-.723,2.174H49.443l1.806,1.455-.723,2.36,1.987-1.455Zm-18.778,0,1.984,1.455L35,24.181l1.8-1.455H34.455l-.72-2.174-.725,2.174H30.66l1.8,1.455-.72,2.36,1.989-1.455Zm9.389-2.359,1.987,1.454-.726-2.357,1.987-1.453H43.845l-.722-2.36-.724,2.36H40.052l1.986,1.453-.9,2.357,1.986-1.454ZM54.8,7.79a4.289,4.289,0,0,1-.682-2.511,4.029,4.029,0,0,1,.7-2.412A2.188,2.188,0,0,1,56.692,1.9a2.447,2.447,0,0,1,2.037.893,3.922,3.922,0,0,1,.707,2.49,4.129,4.129,0,0,1-.71,2.565,2.413,2.413,0,0,1-2.035.928A2.174,2.174,0,0,1,54.8,7.79ZM55.463,3.4a3.576,3.576,0,0,0-.422,1.876,3.832,3.832,0,0,0,.433,1.908,1.342,1.342,0,0,0,1.22.767,1.53,1.53,0,0,0,1.358-.7,3.542,3.542,0,0,0,.468-1.972q0-2.566-1.826-2.565A1.355,1.355,0,0,0,55.463,3.4ZM44.031,8.218a2.092,2.092,0,0,1-.579-1.587V2.016h.873V6.561a1.413,1.413,0,0,0,.368,1,1.284,1.284,0,0,0,.979.391,1.344,1.344,0,0,0,1.013-.381,1.423,1.423,0,0,0,.369-1.033V2.016h.874V6.635a2.046,2.046,0,0,1-.6,1.572,2.707,2.707,0,0,1-3.293.01Zm-28.484,0a2.092,2.092,0,0,1-.579-1.587V2.016h.874V6.561a1.411,1.411,0,0,0,.368,1,1.283,1.283,0,0,0,.979.391A1.344,1.344,0,0,0,18.2,7.572a1.423,1.423,0,0,0,.369-1.033V2.016h.873V6.635a2.046,2.046,0,0,1-.6,1.572,2.31,2.31,0,0,1-1.643.564A2.3,2.3,0,0,1,15.548,8.218Zm-13.957,0a2.092,2.092,0,0,1-.579-1.587V2.016h.875V6.561a1.407,1.407,0,0,0,.368,1,1.281,1.281,0,0,0,.978.391,1.345,1.345,0,0,0,1.014-.381,1.422,1.422,0,0,0,.368-1.033V2.016h.875V6.635a2.05,2.05,0,0,1-.6,1.572,2.315,2.315,0,0,1-1.645.564A2.3,2.3,0,0,1,1.59,8.218Zm77.983.534-3.3-4.858V8.659h-.829V2.016h.347L79,6.616v-4.6h.829V8.752Zm-54.693,0-3.3-4.858V8.659h-.829V2.016H21.1l3.211,4.6v-4.6h.83V8.752Zm-13.957,0-3.3-4.858V8.659h-.83V2.016h.349l3.211,4.6v-4.6h.829V8.752Zm73.842-.092-.442-1.4H81.939l-.474,1.4h-.972l2.6-6.735h.232l2.409,6.735Zm-2.6-2.072h1.9l-.91-2.918ZM73.814,8.659l-.442-1.4H70.987l-.472,1.4h-.972l2.595-6.735h.233l2.407,6.735ZM71.219,6.587h1.9l-.91-2.918ZM65.407,8.659V2.016h3.764v.818H66.281V4.674h2.06v.77h-2.06v2.4h2.889v.818Zm-4.973,0V2.015c.661-.03,1.058-.045,1.2-.045q2.782,0,2.782,1.937,0,2.242-2.459,2.243c-.1,0-.313-.016-.645-.046V8.659Zm.875-5.827V5.289c.369.029.563.045.583.045q1.622,0,1.62-1.33,0-1.215-1.728-1.215A3.425,3.425,0,0,0,61.308,2.832ZM52.776,8.659l-1.7-2.853q-.291,0-.922-.044v2.9h-.875V2.01q.049,0,.678-.034c.42-.024.726-.034.916-.034q2.3,0,2.3,1.908a1.848,1.848,0,0,1-.37,1.129,1.537,1.537,0,0,1-.88.624l1.848,3.057ZM50.154,2.823V4.991a4.333,4.333,0,0,0,.609.045A1.949,1.949,0,0,0,51.9,4.773a1.107,1.107,0,0,0,.356-.944.885.885,0,0,0-.381-.8,2.3,2.3,0,0,0-1.211-.246Q50.537,2.778,50.154,2.823ZM38.674,8.659V2.016h3.764v.818H39.549V4.674h2.06v.77h-2.06v2.4h2.889v.818Zm-3.825,0-.442-1.4H32.022l-.472,1.4h-.972l2.6-6.735h.233l2.408,6.735Zm-2.6-2.072h1.9l-.91-2.918ZM26.442,8.659V2.016h3.763v.818H27.317V4.674h2.06v.77h-2.06v2.4h2.889v.818Zm-13.805,0V2.016h.875V8.659ZM82.131,1.05A1.541,1.541,0,0,1,81.761,0h.614A.72.72,0,0,0,82.6.529a.736.736,0,0,0,.553.251.884.884,0,0,0,.624-.235A.727.727,0,0,0,84.025,0h.625a1.5,1.5,0,0,1-.411,1.006,1.367,1.367,0,0,1-1.089.471A1.273,1.273,0,0,1,82.131,1.05Z"/>
</svg>
