<svg xmlns="http://www.w3.org/2000/svg" width="20" height="20" viewBox="0 0 20 20">
  <path id="Icon" d="M927.99,352a10,10,0,1,1,10-10A10.011,10.011,0,0,1,927.99,352Zm-1.9-6h0a14.084,14.084,0,0,0,1.91,3.96,14.09,14.09,0,0,0,1.91-3.96h-3.82Zm5.88,0h0a15.647,15.647,0,0,1-1.38,3.56,8.023,8.023,0,0,0,4.33-3.56Zm-10.89,0a7.993,7.993,0,0,0,4.33,3.56,15.648,15.648,0,0,1-1.38-3.56Zm4.58-6a14.329,14.329,0,0,0-.16,2,14.782,14.782,0,0,0,.16,2h4.68a14.722,14.722,0,0,0,.16-2,14.314,14.314,0,0,0-.16-2Zm6.7,0h0a14.308,14.308,0,0,1,0,4h3.38a7.819,7.819,0,0,0,0-4Zm-12.1,0h0a7.817,7.817,0,0,0,0,4h3.38a14.314,14.314,0,0,1,0-4Zm10.33-5.56a15.644,15.644,0,0,1,1.38,3.56h2.95a8.025,8.025,0,0,0-4.33-3.56Zm-2.59-.4A14.083,14.083,0,0,0,926.09,338h3.82A14.089,14.089,0,0,0,928,334.04Zm-2.59.4a7.994,7.994,0,0,0-4.33,3.56h2.95a15.641,15.641,0,0,1,1.38-3.56Z" transform="translate(-917.99 -332)" fill="#0848c8"/>
</svg>
